<?xml version="1.0" encoding="utf-8" standalone="no"?>
<!DOCTYPE svg PUBLIC "-//W3C//DTD SVG 1.1//EN"
  "http://www.w3.org/Graphics/SVG/1.1/DTD/svg11.dtd">
<!-- Created with matplotlib (http://matplotlib.org/) -->
<svg height="310pt" version="1.1" viewBox="0 0 621 310" width="621pt" xmlns="http://www.w3.org/2000/svg" xmlns:xlink="http://www.w3.org/1999/xlink">
 <defs>
  <style type="text/css">
*{stroke-linecap:butt;stroke-linejoin:round;}
  </style>
 </defs>
 <g id="figure_1">
  <g id="patch_1">
   <path d="
M0 310.908
L621.439 310.908
L621.439 0
L0 0
z
" style="fill:#ffffff;"/>
  </g>
  <g id="axes_1">
   <g id="patch_2">
    <path d="
M56.2388 243.407
L614.239 243.407
L614.239 13.0069
L56.2388 13.0069
z
" style="fill:#ffffff;"/>
   </g>
   <g id="line2d_1">
    <path clip-path="url(#p8b363464d2)" d="
M107.799 223.967
L107.417 223.967
L107.035 224.255
L106.654 224.255
L106.272 224.399
L105.89 224.687
L105.508 224.687
L104.744 224.399
L104.362 224.399
L103.98 224.831
L103.598 224.831
L102.834 224.831
L102.452 224.831
L101.688 224.975
L101.307 224.975
L100.925 224.975
L100.543 225.119
L100.161 225.119
L99.7788 225.119
L99.3969 225.263
L99.0149 225.263
L97.8691 225.263
L97.4872 225.263
L97.1053 225.263
L96.7233 225.263
L95.9595 225.551
L95.1956 225.839
L94.8137 225.839
L94.4318 225.983
L94.0498 226.127
L93.286 226.415
L92.904 226.415
L92.5221 226.415
L92.1402 226.559
L91.7583 226.703
L91.3763 226.991
L90.6125 227.135
L90.2305 227.135
L89.8486 227.567
L89.4667 227.567
L89.0847 227.567
L88.7028 227.567
L88.3209 227.567
L87.939 227.855
L87.1751 227.855
L86.7932 227.999
L86.4112 227.999
L86.0293 227.999
L85.6474 227.999
L85.2654 227.999
L84.8835 228.287
L84.5016 228.431
L84.1197 228.575
L83.7377 228.575
L81.4461 229.295
L81.0642 229.295
L80.6823 229.439
L80.3004 229.439
L79.9184 229.583
L79.5365 229.583
L79.1546 229.583
L78.7726 229.583
L78.3907 229.583
L78.0088 229.583
L77.6268 229.583
L77.2449 229.583
L76.863 230.303
L76.481 229.151
L76.0991 229.295
L75.7172 229.295
L75.3353 229.295
L74.5714 229.439
L74.1895 229.439
L73.8075 229.871
L73.4256 229.871
L73.0437 229.871
L72.6617 229.871
L72.2798 229.871
L71.8979 229.871
L71.516 229.871
L71.134 229.871
L70.7521 229.871
L70.3702 230.015
L67.6967 230.159
L66.9328 230.159
L65.787 230.159
L63.1135 230.447
L62.7316 230.591
L61.9677 230.735
L61.5858 230.735
L60.8219 230.879
L60.0581 231.023
L59.6761 231.023
L58.9123 231.023
L58.5303 231.023
L58.1484 231.023
L57.7665 231.023
L57.3845 231.023
L57.0026 231.023
L56.6207 231.167
L56.2388 231.167" style="fill:none;stroke:#ff0000;stroke-linecap:square;stroke-width:2;"/>
   </g>
   <g id="line2d_2">
    <path clip-path="url(#p8b363464d2)" d="
M402.649 172.127
L392.337 172.127
L391.955 172.271
L390.81 172.127
L386.608 172.127
L386.226 172.271
L385.844 172.127
L385.463 172.127
L385.081 172.271
L384.699 172.127
L383.553 172.127
L383.171 172.271
L381.261 172.271
L380.879 172.127
L376.296 172.127
L375.914 172.271
L375.532 172.127
L372.859 172.127
L372.477 172.271
L372.095 172.127
L371.713 172.271
L371.331 172.127
L366.748 172.127
L366.366 172.271
L365.602 172.271
L365.22 172.415
L364.456 172.271
L364.074 172.415
L363.693 172.271
L362.547 172.271
L362.165 172.415
L361.783 172.271
L359.491 172.271
L359.109 172.415
L358.727 172.271
L356.818 172.271
L356.436 172.415
L315.569 173.279
L313.278 173.567
L311.75 173.567
L303.73 173.711
L295.327 173.711
L290.362 174.143
L287.307 174.431
L283.869 174.431
L283.105 174.719
L281.578 174.431
L272.411 174.719
L269.738 175.295
L268.21 175.439
L266.3 176.015
L264.773 176.735
L258.662 178.175
L256.752 178.463
L254.842 178.607
L253.697 178.895
L247.204 180.911
L240.711 182.351
L234.218 184.367
L233.836 184.367
L233.454 184.511
L233.072 184.799
L232.69 185.375
L232.309 185.663
L231.545 185.519
L230.781 185.807
L229.635 185.807
L229.253 185.951
L228.489 185.951
L228.107 186.239
L227.725 186.239
L227.343 186.527
L226.962 186.527
L225.816 186.383
L221.615 187.247
L220.851 187.247
L218.177 188.255
L217.413 188.255
L214.358 188.831
L213.976 189.119
L212.448 189.407
L209.011 190.559
L208.629 190.991
L207.865 191.279
L207.101 191.279
L206.719 191.423
L205.192 191.711
L204.81 192.143
L204.428 192.287
L204.046 192.287
L203.282 193.007
L202.136 193.439
L200.608 193.439
L199.844 193.871
L199.081 193.871
L196.789 194.015
L196.407 194.447
L195.643 194.447
L191.06 194.591
L190.678 194.879
L190.296 194.735
L189.914 195.023
L189.532 195.023
L189.15 195.167
L188.769 195.455
L187.241 195.743
L185.331 195.743
L184.949 196.031
L184.185 196.031
L182.276 196.607
L180.366 197.471
L178.456 197.471
L176.929 197.759
L175.401 198.623
L175.019 198.623
L174.637 198.335
L173.109 199.487
L172.727 199.631
L172.346 199.919
L171.582 200.351
L170.818 200.351
L170.436 200.495
L170.054 200.927
L169.672 200.927
L169.29 201.215
L167.762 201.215
L167.38 201.935
L166.999 201.935
L166.617 202.223
L165.089 203.231
L162.415 204.095
L160.506 205.103
L157.832 205.679
L157.068 205.967
L155.541 205.967
L155.159 206.111
L154.013 206.687
L152.485 207.119
L152.103 207.407
L151.339 207.407
L150.576 207.695
L149.812 207.695
L147.52 207.839
L145.992 208.559
L145.61 208.559
L145.228 208.991
L144.847 208.991
L144.465 209.135
L144.083 209.135
L143.701 209.423
L141.791 210.143
L140.645 210.143
L140.263 210.287
L139.881 210.287
L139.5 210.431
L138.736 210.431
L138.354 210.575
L137.972 210.575
L137.59 210.719
L137.208 211.007
L136.826 211.007
L136.444 211.151
L136.062 211.151
L135.68 211.295
L134.916 211.295
L134.534 211.583
L134.153 211.727
L133.007 211.727
L132.243 212.015
L131.861 212.015
L131.479 212.303
L130.715 212.303
L130.333 212.447
L129.951 212.735
L129.569 212.735
L128.424 213.023
L128.042 213.311
L127.66 213.311
L127.278 210.719
L126.896 213.599
L126.514 213.887
L126.132 213.887
L125.75 214.031
L124.604 213.887
L124.222 214.031
L123.458 214.031
L122.695 214.319
L121.167 214.319
L120.785 215.471
L120.021 215.471
L119.639 215.759
L118.875 216.047
L117.73 216.911
L115.438 216.911
L114.674 217.199
L114.292 217.631
L113.528 215.903
L112.764 216.191
L112.382 216.623
L111.619 216.623
L111.237 216.767
L110.855 216.767
L110.091 217.199
L109.327 217.199
L108.563 217.487
L108.181 217.487
L107.799 217.775
L106.272 218.351
L105.89 218.639
L105.508 218.639
L104.362 218.783
L103.98 219.215
L103.598 219.359
L101.688 219.359
L100.543 219.791
L99.7788 219.791
L99.3969 219.935
L99.0149 219.935
L96.7233 220.223
L95.9595 220.655
L95.1956 221.375
L94.4318 221.375
L94.0498 221.807
L93.286 221.951
L92.904 222.239
L92.5221 222.239
L91.7583 222.527
L91.3763 222.815
L90.2305 222.959
L89.8486 223.391
L88.3209 223.391
L87.939 223.679
L87.1751 223.679
L86.4112 223.967
L86.0293 223.967
L85.6474 224.255
L85.2654 224.255
L84.8835 224.543
L80.6823 226.127
L80.3004 232.031
L79.9184 226.271
L79.5365 226.271
L79.1546 226.415
L77.6268 226.415
L77.2449 226.559
L76.481 226.559
L76.0991 226.847
L75.3353 226.847
L74.5714 226.991
L74.1895 227.423
L71.134 227.423
L70.7521 227.567
L70.3702 227.855
L65.787 227.999
L61.9677 228.719
L61.5858 228.719
L60.8219 229.007
L58.1484 229.439
L57.0026 229.439
L56.6207 229.583
L56.2388 229.583
L56.2388 229.583" style="fill:none;stroke:#008000;stroke-linecap:square;stroke-width:2;"/>
   </g>
   <g id="line2d_3">
    <path clip-path="url(#p8b363464d2)" d="
M569.171 112.655
L568.407 112.655
L536.707 112.943
L534.415 112.799
L534.033 112.943
L530.596 112.943
L530.214 113.231
L529.832 113.375
L529.45 112.943
L528.686 113.231
L528.304 113.087
L516.083 113.087
L515.701 113.231
L515.319 113.087
L505.389 113.087
L505.007 113.231
L499.278 113.231
L498.896 113.375
L498.514 114.095
L498.132 113.375
L495.84 113.375
L495.458 113.231
L495.077 113.375
L491.639 113.375
L489.348 113.663
L488.966 113.519
L487.438 113.519
L487.056 113.663
L486.674 113.519
L485.91 113.519
L485.528 113.663
L480.181 113.663
L476.744 113.951
L475.98 113.951
L475.598 114.095
L474.452 114.095
L474.07 114.239
L473.688 114.095
L471.397 114.095
L471.015 114.239
L467.578 114.239
L467.196 114.383
L466.814 114.383
L466.05 114.527
L464.14 114.239
L462.231 114.239
L461.849 114.383
L457.647 114.383
L440.461 114.671
L438.933 114.959
L437.787 114.959
L437.405 115.103
L435.495 114.815
L435.113 114.959
L432.822 114.959
L431.294 115.535
L430.53 115.535
L430.148 116.255
L428.239 115.535
L426.329 115.535
L423.656 115.823
L422.51 115.823
L421.746 115.967
L418.309 115.967
L417.545 116.687
L417.163 116.831
L416.017 116.687
L415.635 116.975
L411.816 117.263
L411.052 117.551
L409.142 117.551
L408.378 117.839
L407.615 117.839
L406.851 118.127
L403.795 118.127
L403.413 118.271
L403.031 118.703
L401.886 119.135
L401.504 119.711
L400.74 119.711
L400.358 119.855
L399.976 119.855
L399.212 120.143
L398.83 120.575
L398.066 120.863
L397.684 120.863
L397.302 121.151
L396.539 121.151
L396.157 121.295
L395.775 121.295
L395.393 121.583
L394.629 121.871
L394.247 122.159
L393.483 122.159
L392.719 122.447
L391.955 122.447
L391.192 122.735
L390.81 123.167
L390.428 123.311
L390.046 123.599
L389.664 123.599
L389.282 123.743
L388.9 123.743
L388.518 123.887
L388.136 123.887
L386.99 124.319
L385.081 124.319
L384.699 124.607
L384.317 124.607
L383.935 124.895
L383.553 124.895
L383.171 125.183
L382.789 125.183
L382.407 125.039
L382.025 125.039
L381.261 125.615
L380.879 125.759
L380.116 126.479
L378.97 126.335
L378.588 126.623
L377.824 126.911
L377.442 126.911
L377.06 127.055
L376.678 127.055
L375.15 127.631
L374.387 127.775
L374.005 128.063
L373.623 128.063
L373.241 128.207
L372.859 128.063
L372.477 128.063
L371.713 128.351
L371.331 128.351
L370.567 128.639
L370.185 128.495
L369.803 128.495
L369.04 128.783
L368.658 128.783
L368.276 128.927
L367.894 128.927
L366.748 129.359
L366.366 129.935
L365.984 129.935
L365.602 130.079
L365.22 130.511
L364.074 130.799
L363.311 131.087
L362.547 131.087
L362.165 131.231
L361.783 131.231
L360.637 131.663
L360.255 131.519
L359.873 131.663
L359.491 131.663
L358.727 132.527
L358.346 132.527
L357.964 132.671
L357.582 132.527
L357.2 132.671
L356.818 132.959
L356.436 133.103
L350.325 136.415
L330.465 145.775
L324.354 150.383
L315.569 153.263
L313.278 154.703
L311.75 155.999
L303.73 158.735
L295.327 161.183
L293.417 161.615
L290.362 162.911
L287.307 163.631
L283.869 164.207
L283.105 164.783
L281.578 164.927
L276.994 166.511
L272.411 169.679
L271.265 170.111
L269.738 170.831
L268.21 167.231
L266.3 168.527
L264.773 169.391
L258.662 172.127
L256.752 173.135
L253.697 173.999
L247.204 177.599
L243.766 178.319
L240.711 179.183
L234.218 181.343
L233.836 181.343
L233.454 181.487
L233.072 181.775
L232.69 182.351
L232.309 182.639
L231.545 182.639
L230.781 182.927
L228.489 183.215
L228.107 183.647
L227.725 183.647
L227.343 183.935
L225.816 183.935
L221.615 185.231
L220.851 185.231
L220.087 185.519
L219.705 185.807
L219.323 185.951
L218.177 186.527
L217.413 186.527
L214.358 186.959
L213.976 187.247
L212.448 187.535
L209.011 188.687
L208.629 189.119
L207.865 189.407
L207.101 189.407
L206.719 189.695
L205.192 189.983
L204.81 190.271
L204.428 190.415
L204.046 190.415
L202.9 191.567
L202.136 191.855
L200.608 192.143
L199.844 192.575
L199.081 192.719
L196.789 192.863
L196.407 193.295
L195.643 193.295
L191.06 193.871
L190.678 194.159
L190.296 194.015
L189.914 194.303
L189.15 194.303
L188.769 194.591
L186.477 194.735
L185.713 195.023
L185.331 195.023
L184.949 195.311
L184.185 195.311
L182.276 196.607
L180.366 196.751
L178.456 196.751
L176.929 197.039
L175.401 197.903
L175.019 197.471
L174.637 197.471
L173.109 198.623
L172.727 198.767
L172.346 199.199
L171.582 199.631
L170.818 199.631
L170.436 199.775
L170.054 200.207
L169.672 200.207
L169.29 200.351
L168.144 200.495
L167.762 200.495
L167.38 201.359
L166.999 201.359
L166.617 201.647
L165.089 202.655
L162.415 203.663
L161.27 203.951
L160.506 204.527
L157.832 205.103
L157.068 205.391
L155.159 205.391
L154.395 205.967
L154.013 206.111
L152.867 206.255
L152.103 206.831
L151.339 206.831
L150.957 206.975
L150.576 207.263
L149.812 207.263
L147.52 207.407
L145.992 208.127
L145.61 208.127
L145.228 208.559
L144.847 208.559
L144.465 208.703
L144.083 208.703
L143.701 208.991
L141.791 209.855
L140.645 209.855
L139.881 210.143
L138.736 210.143
L138.354 210.287
L137.972 210.287
L137.59 210.431
L137.208 210.719
L136.826 210.719
L136.444 210.863
L136.062 210.863
L135.68 211.007
L134.916 211.007
L134.153 211.583
L133.007 211.583
L132.243 211.871
L131.861 211.871
L131.479 212.159
L130.715 212.159
L130.333 212.303
L129.951 212.591
L129.569 212.591
L128.424 212.879
L128.042 213.167
L127.278 213.167
L126.514 213.743
L126.132 213.743
L125.75 213.887
L124.604 213.743
L124.222 213.887
L123.458 213.887
L123.077 214.031
L122.695 214.031
L121.549 214.175
L121.167 214.175
L120.785 215.327
L120.021 215.327
L119.639 215.615
L118.875 215.903
L117.73 216.767
L115.438 216.767
L114.674 217.055
L114.292 217.487
L113.528 217.775
L113.146 217.775
L112.764 218.063
L112.382 218.495
L111.619 218.495
L111.237 218.639
L110.855 218.639
L110.091 219.071
L109.327 219.071
L108.563 219.359
L108.181 219.791
L108.181 219.791" style="fill:none;stroke:#0000ff;stroke-linecap:square;stroke-width:2;"/>
   </g>
   <g id="line2d_4">
    <path clip-path="url(#p8b363464d2)" d="
M582.157 67.7269
L577.573 68.3029
L569.171 68.4469
L568.407 68.3029
L536.707 70.6069
L534.415 70.4629
L534.033 70.7509
L532.506 70.8949
L531.36 70.7509
L530.978 70.7509
L530.596 71.0389
L530.214 71.0389
L529.832 72.9109
L529.45 71.3269
L528.686 71.6149
L528.304 71.6149
L527.541 71.7589
L527.159 71.3269
L526.777 71.9029
L525.631 71.1829
L524.867 71.0389
L524.485 71.4709
L523.339 71.4709
L522.957 71.3269
L522.576 71.4709
L522.194 71.3269
L521.43 71.3269
L521.048 71.4709
L520.666 71.7589
L519.52 71.7589
L519.138 71.6149
L518.374 71.9029
L517.992 71.9029
L517.61 71.7589
L516.847 72.0469
L516.083 71.9029
L515.701 72.0469
L515.319 71.9029
L514.937 72.0469
L513.409 72.3349
L513.027 72.1909
L512.645 72.1909
L512.263 72.0469
L511.881 72.1909
L511.118 72.1909
L510.736 72.3349
L509.972 72.1909
L509.208 72.6229
L508.826 72.6229
L508.444 72.7669
L508.062 73.0549
L507.68 73.1989
L507.298 72.9109
L506.153 73.3429
L505.771 73.1989
L505.389 73.3429
L505.007 73.7749
L504.625 73.9189
L504.243 73.7749
L503.479 73.9189
L503.097 74.4949
L502.715 74.3509
L502.333 74.4949
L501.951 74.7829
L501.569 74.7829
L501.187 75.2149
L500.805 74.9269
L500.424 74.9269
L500.042 75.3589
L499.66 75.2149
L499.278 75.2149
L498.514 76.5109
L498.132 76.2229
L497.75 76.2229
L497.368 76.5109
L496.604 76.7989
L495.84 77.3749
L495.458 77.8069
L495.077 77.6629
L494.695 77.8069
L494.313 78.0949
L493.931 77.8069
L493.549 78.0949
L491.639 78.0949
L490.493 79.2469
L488.966 79.8229
L488.584 79.6789
L487.82 80.8309
L487.438 80.6869
L487.056 80.9749
L486.674 80.8309
L486.292 80.8309
L485.91 80.9749
L485.528 80.9749
L485.146 81.6949
L484.382 82.4149
L483.619 82.7029
L483.237 82.7029
L482.855 82.9909
L482.473 83.4229
L482.091 83.4229
L481.327 83.7109
L480.945 83.7109
L480.563 84.1429
L480.181 84.1429
L477.508 85.7269
L477.126 86.1589
L476.744 86.0149
L476.362 86.0149
L475.98 86.1589
L475.216 86.8789
L474.834 86.7349
L474.452 87.0229
L474.07 87.7429
L473.688 87.7429
L472.925 88.0309
L472.161 88.0309
L471.779 88.3189
L471.397 88.3189
L471.015 88.6069
L470.633 89.0389
L470.251 88.7509
L469.869 88.7509
L469.487 89.0389
L469.105 89.9029
L468.723 90.0469
L468.341 89.9029
L467.959 90.0469
L467.578 89.9029
L467.196 90.3349
L466.814 90.4789
L466.05 90.3349
L464.14 90.1909
L463.758 90.7669
L462.994 91.4869
L462.612 92.2069
L462.231 92.3509
L461.849 92.6389
L461.085 92.7829
L460.703 93.0709
L457.647 93.3589
L443.516 98.9749
L441.606 98.9749
L441.224 99.6949
L440.461 99.6949
L438.933 100.271
L437.787 100.271
L437.405 100.847
L435.495 101.135
L435.113 101.999
L434.35 102.287
L433.968 103.151
L432.822 103.151
L432.44 103.295
L431.294 104.303
L430.53 104.303
L430.148 105.167
L428.239 104.303
L427.857 104.303
L427.475 104.447
L427.093 104.447
L426.711 104.303
L426.329 104.447
L425.183 105.023
L424.038 105.167
L423.656 105.167
L422.892 105.311
L422.51 105.167
L421.746 105.455
L420.982 106.031
L420.6 106.751
L419.836 106.463
L419.072 106.751
L418.69 107.327
L418.309 107.471
L417.927 107.903
L417.545 108.623
L417.163 108.911
L416.017 109.055
L415.635 110.207
L411.052 111.935
L410.67 111.935
L409.906 112.511
L409.142 112.511
L408.378 113.519
L407.615 113.519
L407.233 113.663
L406.851 113.951
L406.087 114.239
L405.705 114.815
L405.323 114.815
L404.941 114.959
L404.559 115.247
L403.795 115.535
L403.031 116.543
L402.649 116.543
L402.267 116.831
L401.886 116.975
L401.504 115.103
L400.74 114.959
L400.358 115.103
L399.594 115.679
L399.212 115.823
L398.83 117.407
L398.448 117.983
L397.302 118.415
L396.92 118.847
L396.539 118.703
L396.157 118.703
L395.775 117.695
L395.393 117.983
L395.011 118.559
L394.629 118.559
L394.247 118.991
L393.865 119.135
L393.483 118.991
L391.955 119.567
L391.192 119.999
L390.81 120.575
L390.428 120.575
L390.046 120.863
L389.664 120.863
L388.518 121.295
L388.136 121.295
L387.372 122.015
L386.99 122.015
L386.608 122.159
L386.226 122.015
L385.081 122.015
L384.699 122.303
L384.317 123.311
L383.935 122.591
L383.553 122.735
L383.171 123.023
L382.407 123.311
L382.025 123.311
L381.261 124.463
L380.879 124.463
L380.116 125.183
L378.97 125.039
L378.588 125.327
L378.206 125.759
L377.824 125.903
L377.442 125.903
L377.06 126.047
L376.678 126.047
L376.296 126.191
L375.914 126.479
L375.532 126.479
L375.15 126.623
L374.387 126.767
L374.005 127.199
L373.241 127.199
L372.859 127.055
L372.095 127.343
L371.331 127.343
L370.949 127.487
L370.567 127.487
L370.185 127.631
L369.803 127.631
L368.276 128.207
L367.894 128.207
L367.13 128.783
L366.748 128.783
L366.366 129.359
L365.984 129.359
L365.602 129.503
L365.22 129.791
L363.311 130.511
L362.547 130.511
L362.165 130.655
L361.783 130.655
L361.019 130.943
L360.637 130.943
L360.255 131.087
L359.873 130.943
L359.491 131.087
L358.727 131.951
L357.582 131.951
L357.2 132.095
L356.818 132.383
L356.436 132.527
L330.465 145.919
L324.354 150.383
L315.569 153.407
L313.278 154.703
L311.75 155.999
L303.73 158.879
L290.744 162.479
L290.362 162.767
L287.307 163.487
L287.307 163.487" style="fill:none;stroke:#000000;stroke-linecap:square;stroke-width:2;"/>
   </g>
   <g id="line2d_5">
    <path clip-path="url(#p8b363464d2)" d="
M614.239 17.3269
L605.072 23.0869
L604.309 23.9509
L603.545 23.9509
L602.781 25.1029
L602.017 24.9589
L601.253 26.3989
L600.489 25.8229
L599.725 26.5429
L598.962 28.2709
L597.434 28.1269
L596.67 28.8469
L595.906 29.2789
L595.142 28.8469
L594.378 28.8469
L593.615 28.5589
L592.851 28.8469
L591.705 29.7109
L590.177 31.7269
L589.413 32.3029
L588.649 32.4469
L587.886 33.0229
L587.122 33.3109
L586.358 33.7429
L585.594 33.8869
L584.83 34.6069
L582.92 36.0469
L582.157 35.3269
L577.573 36.6229
L568.407 40.7989
L536.707 60.5269
L534.415 61.3909
L534.033 62.1109
L532.888 62.9749
L532.506 62.9749
L531.36 63.4069
L530.978 63.8389
L530.214 64.1269
L529.832 66.7189
L529.45 64.7029
L529.068 66.2869
L528.686 66.1429
L528.304 66.1429
L527.541 66.5749
L527.159 67.0069
L526.777 67.1509
L524.103 67.8709
L522.576 69.3109
L522.194 69.8869
L520.284 70.3189
L519.902 70.6069
L519.52 70.7509
L519.138 70.6069
L518.756 70.8949
L518.374 70.8949
L517.61 71.1829
L517.228 71.4709
L516.847 71.6149
L516.083 71.7589
L515.701 72.0469
L515.319 71.7589
L514.937 72.0469
L514.173 72.7669
L513.791 72.6229
L513.409 72.9109
L513.027 72.7669
L512.263 72.7669
L511.881 73.0549
L510.736 73.1989
L509.972 73.1989
L509.208 74.2069
L508.826 74.2069
L508.444 74.4949
L506.916 75.0709
L506.153 75.7909
L505.771 70.0309
L505.389 70.1749
L505.007 70.7509
L504.243 71.0389
L503.479 71.1829
L502.715 71.9029
L502.333 72.0469
L501.951 73.0549
L501.569 73.1989
L501.187 73.7749
L500.805 75.9349
L500.424 73.9189
L500.042 74.3509
L499.66 74.2069
L499.278 74.3509
L498.896 75.0709
L498.514 75.3589
L497.75 75.3589
L497.368 75.9349
L496.986 75.9349
L496.604 76.2229
L495.84 76.9429
L494.695 77.8069
L494.313 77.6629
L493.549 77.9509
L493.167 77.9509
L492.785 78.0949
L492.403 78.0949
L491.639 78.3829
L489.348 80.2549
L488.966 80.3989
L488.584 80.3989
L488.202 81.1189
L487.82 81.2629
L487.438 81.5509
L487.056 81.4069
L486.292 81.6949
L485.91 81.5509
L485.528 81.6949
L485.146 82.4149
L484.764 82.7029
L484.382 82.8469
L483.619 83.4229
L483.237 83.2789
L482.855 83.8549
L482.473 83.7109
L482.091 83.8549
L481.327 84.4309
L480.563 84.4309
L480.181 84.8629
L477.508 86.4469
L477.126 86.4469
L476.744 86.8789
L475.98 86.5909
L475.598 87.1669
L475.216 87.1669
L474.834 87.3109
L473.307 89.0389
L472.925 88.6069
L472.161 88.6069
L471.779 88.8949
L471.397 88.8949
L471.015 89.3269
L470.633 89.4709
L470.251 89.4709
L469.487 89.7589
L469.105 91.0549
L468.723 90.6229
L467.959 90.9109
L467.578 90.3349
L467.196 90.6229
L466.05 91.0549
L464.522 90.7669
L464.14 90.9109
L463.758 91.3429
L462.994 91.9189
L462.612 93.0709
L462.231 93.0709
L461.849 93.3589
L457.647 94.0789
L443.516 99.6949
L441.606 99.6949
L441.224 100.415
L437.787 100.991
L437.405 101.567
L435.495 101.567
L435.113 102.575
L434.35 102.863
L433.968 103.727
L432.822 103.727
L432.44 104.015
L431.294 104.735
L430.912 104.735
L430.53 104.879
L430.148 105.455
L428.239 104.879
L427.857 105.023
L427.475 104.879
L426.329 104.879
L425.183 105.599
L424.038 105.743
L422.51 105.743
L421.746 106.031
L420.982 106.607
L420.6 107.039
L419.836 107.039
L419.072 107.327
L418.69 107.759
L418.309 107.759
L417.163 109.487
L416.017 109.487
L415.635 110.783
L411.816 112.511
L410.67 112.655
L409.906 113.231
L409.142 113.231
L408.378 114.239
L407.233 114.239
L406.851 114.671
L406.087 114.959
L405.705 115.535
L403.795 116.255
L403.031 117.119
L403.031 117.119" style="fill:none;stroke:#bfbf00;stroke-linecap:square;stroke-width:2;"/>
   </g>
   <g id="line2d_6">
    <path clip-path="url(#p8b363464d2)" d="
M614.239 18.4789
L605.072 25.2469
L604.309 26.5429
L603.545 26.3989
L602.781 27.9829
L602.017 27.2629
L601.253 28.5589
L600.489 28.2709
L599.725 28.8469
L598.962 29.9989
L597.434 33.1669
L596.67 32.5909
L595.906 32.7349
L595.142 32.4469
L594.378 30.8629
L593.615 31.0069
L592.851 30.7189
L591.705 31.8709
L590.177 33.1669
L589.413 32.5909
L588.649 32.5909
L587.886 32.7349
L587.122 33.1669
L586.358 33.7429
L585.594 35.0389
L584.83 35.6149
L582.92 41.2309
L582.157 41.3749" style="fill:none;stroke:#bf00bf;stroke-linecap:square;stroke-width:2;"/>
   </g>
   <g id="line2d_7">
    <path clip-path="url(#p8b363464d2)" d="
M110.855 243.407
L110.855 13.0069" style="fill:none;stroke:#333333;stroke-linecap:square;"/>
   </g>
   <g id="line2d_8">
    <path clip-path="url(#p8b363464d2)" d="
M123.077 243.407
L123.077 13.0069" style="fill:none;stroke:#cccccc;stroke-linecap:square;"/>
   </g>
   <g id="line2d_9">
    <path clip-path="url(#p8b363464d2)" d="
M134.534 243.407
L134.534 13.0069" style="fill:none;stroke:#cccccc;stroke-linecap:square;"/>
   </g>
   <g id="line2d_10">
    <path clip-path="url(#p8b363464d2)" d="
M147.138 243.407
L147.138 13.0069" style="fill:none;stroke:#cccccc;stroke-linecap:square;"/>
   </g>
   <g id="line2d_11">
    <path clip-path="url(#p8b363464d2)" d="
M159.742 243.407
L159.742 13.0069" style="fill:none;stroke:#cccccc;stroke-linecap:square;"/>
   </g>
   <g id="line2d_12">
    <path clip-path="url(#p8b363464d2)" d="
M164.707 243.407
L164.707 13.0069" style="fill:none;stroke:#cccccc;stroke-linecap:square;"/>
   </g>
   <g id="line2d_13">
    <path clip-path="url(#p8b363464d2)" d="
M179.984 243.407
L179.984 13.0069" style="fill:none;stroke:#cccccc;stroke-linecap:square;"/>
   </g>
   <g id="line2d_14">
    <path clip-path="url(#p8b363464d2)" d="
M192.97 243.407
L192.97 13.0069" style="fill:none;stroke:#cccccc;stroke-linecap:square;"/>
   </g>
   <g id="line2d_15">
    <path clip-path="url(#p8b363464d2)" d="
M207.483 243.407
L207.483 13.0069" style="fill:none;stroke:#cccccc;stroke-linecap:square;"/>
   </g>
   <g id="line2d_16">
    <path clip-path="url(#p8b363464d2)" d="
M218.941 243.407
L218.941 13.0069" style="fill:none;stroke:#cccccc;stroke-linecap:square;"/>
   </g>
   <g id="line2d_17">
    <path clip-path="url(#p8b363464d2)" d="
M228.489 243.407
L228.489 13.0069" style="fill:none;stroke:#cccccc;stroke-linecap:square;"/>
   </g>
   <g id="line2d_18">
    <path clip-path="url(#p8b363464d2)" d="
M241.093 243.407
L241.093 13.0069" style="fill:none;stroke:#cccccc;stroke-linecap:square;"/>
   </g>
   <g id="line2d_19">
    <path clip-path="url(#p8b363464d2)" d="
M275.849 243.407
L275.849 13.0069" style="fill:none;stroke:#cccccc;stroke-linecap:square;"/>
   </g>
   <g id="line2d_20">
    <path clip-path="url(#p8b363464d2)" d="
M268.974 243.407
L268.974 13.0069" style="fill:none;stroke:#333333;stroke-linecap:square;"/>
   </g>
   <g id="line2d_21">
    <path clip-path="url(#p8b363464d2)" d="
M280.814 243.407
L280.814 13.0069" style="fill:none;stroke:#cccccc;stroke-linecap:square;"/>
   </g>
   <g id="line2d_22">
    <path clip-path="url(#p8b363464d2)" d="
M291.508 243.407
L291.508 13.0069" style="fill:none;stroke:#cccccc;stroke-linecap:square;"/>
   </g>
   <g id="line2d_23">
    <path clip-path="url(#p8b363464d2)" d="
M305.639 243.407
L305.639 13.0069" style="fill:none;stroke:#cccccc;stroke-linecap:square;"/>
   </g>
   <g id="line2d_24">
    <path clip-path="url(#p8b363464d2)" d="
M330.465 243.407
L330.465 13.0069" style="fill:none;stroke:#cccccc;stroke-linecap:square;"/>
   </g>
   <g id="line2d_25">
    <path clip-path="url(#p8b363464d2)" d="
M366.366 243.407
L366.366 13.0069" style="fill:none;stroke:#cccccc;stroke-linecap:square;"/>
   </g>
   <g id="line2d_26">
    <path clip-path="url(#p8b363464d2)" d="
M401.122 243.407
L401.122 13.0069" style="fill:none;stroke:#cccccc;stroke-linecap:square;"/>
   </g>
   <g id="line2d_27">
    <path clip-path="url(#p8b363464d2)" d="
M401.504 243.407
L401.504 13.0069" style="fill:none;stroke:#333333;stroke-linecap:square;"/>
   </g>
   <g id="line2d_28">
    <path clip-path="url(#p8b363464d2)" d="
M465.286 243.407
L465.286 13.0069" style="fill:none;stroke:#cccccc;stroke-linecap:square;"/>
   </g>
   <g id="line2d_29">
    <path clip-path="url(#p8b363464d2)" d="
M488.966 243.407
L488.966 13.0069" style="fill:none;stroke:#cccccc;stroke-linecap:square;"/>
   </g>
   <g id="line2d_30">
    <path clip-path="url(#p8b363464d2)" d="
M505.771 243.407
L505.771 13.0069" style="fill:none;stroke:#333333;stroke-linecap:square;"/>
   </g>
   <g id="line2d_31">
    <path clip-path="url(#p8b363464d2)" d="
M554.276 243.407
L554.276 13.0069" style="fill:none;stroke:#cccccc;stroke-linecap:square;"/>
   </g>
   <g id="line2d_32">
    <path clip-path="url(#p8b363464d2)" d="
M573.372 243.407
L573.372 13.0069" style="fill:none;stroke:#cccccc;stroke-linecap:square;"/>
   </g>
   <g id="matplotlib.axis_1">
    <g id="xtick_1">
     <g id="line2d_33">
      <defs>
       <path d="
M0 0
L0 -4" id="m93b0483c22" style="stroke:#000000;stroke-width:0.5;"/>
      </defs>
      <g>
       <use style="stroke:#000000;stroke-width:0.5;" x="115.437928645" xlink:href="#m93b0483c22" y="243.406875"/>
      </g>
     </g>
     <g id="line2d_34">
      <defs>
       <path d="
M0 0
L0 4" id="m741efc42ff" style="stroke:#000000;stroke-width:0.5;"/>
      </defs>
      <g>
       <use style="stroke:#000000;stroke-width:0.5;" x="115.437928645" xlink:href="#m741efc42ff" y="13.006875"/>
      </g>
     </g>
     <g id="text_1">
      <!-- Sep 2014 -->
      <defs>
       <path d="
M12.4062 8.29688
L28.5156 8.29688
L28.5156 63.9219
L10.9844 60.4062
L10.9844 69.3906
L28.4219 72.9062
L38.2812 72.9062
L38.2812 8.29688
L54.3906 8.29688
L54.3906 0
L12.4062 0
z
" id="DejaVuSans-31"/>
       <path d="
M31.7812 66.4062
Q24.1719 66.4062 20.3281 58.9062
Q16.5 51.4219 16.5 36.375
Q16.5 21.3906 20.3281 13.8906
Q24.1719 6.39062 31.7812 6.39062
Q39.4531 6.39062 43.2812 13.8906
Q47.125 21.3906 47.125 36.375
Q47.125 51.4219 43.2812 58.9062
Q39.4531 66.4062 31.7812 66.4062
M31.7812 74.2188
Q44.0469 74.2188 50.5156 64.5156
Q56.9844 54.8281 56.9844 36.375
Q56.9844 17.9688 50.5156 8.26562
Q44.0469 -1.42188 31.7812 -1.42188
Q19.5312 -1.42188 13.0625 8.26562
Q6.59375 17.9688 6.59375 36.375
Q6.59375 54.8281 13.0625 64.5156
Q19.5312 74.2188 31.7812 74.2188" id="DejaVuSans-30"/>
       <path id="DejaVuSans-20"/>
       <path d="
M19.1875 8.29688
L53.6094 8.29688
L53.6094 0
L7.32812 0
L7.32812 8.29688
Q12.9375 14.1094 22.625 23.8906
Q32.3281 33.6875 34.8125 36.5312
Q39.5469 41.8438 41.4219 45.5312
Q43.3125 49.2188 43.3125 52.7812
Q43.3125 58.5938 39.2344 62.25
Q35.1562 65.9219 28.6094 65.9219
Q23.9688 65.9219 18.8125 64.3125
Q13.6719 62.7031 7.8125 59.4219
L7.8125 69.3906
Q13.7656 71.7812 18.9375 73
Q24.125 74.2188 28.4219 74.2188
Q39.75 74.2188 46.4844 68.5469
Q53.2188 62.8906 53.2188 53.4219
Q53.2188 48.9219 51.5312 44.8906
Q49.8594 40.875 45.4062 35.4062
Q44.1875 33.9844 37.6406 27.2188
Q31.1094 20.4531 19.1875 8.29688" id="DejaVuSans-32"/>
       <path d="
M37.7969 64.3125
L12.8906 25.3906
L37.7969 25.3906
z

M35.2031 72.9062
L47.6094 72.9062
L47.6094 25.3906
L58.0156 25.3906
L58.0156 17.1875
L47.6094 17.1875
L47.6094 0
L37.7969 0
L37.7969 17.1875
L4.89062 17.1875
L4.89062 26.7031
z
" id="DejaVuSans-34"/>
       <path d="
M53.5156 70.5156
L53.5156 60.8906
Q47.9062 63.5781 42.9219 64.8906
Q37.9375 66.2188 33.2969 66.2188
Q25.25 66.2188 20.875 63.0938
Q16.5 59.9688 16.5 54.2031
Q16.5 49.3594 19.4062 46.8906
Q22.3125 44.4375 30.4219 42.9219
L36.375 41.7031
Q47.4062 39.5938 52.6562 34.2969
Q57.9062 29 57.9062 20.125
Q57.9062 9.51562 50.7969 4.04688
Q43.7031 -1.42188 29.9844 -1.42188
Q24.8125 -1.42188 18.9688 -0.25
Q13.1406 0.921875 6.89062 3.21875
L6.89062 13.375
Q12.8906 10.0156 18.6562 8.29688
Q24.4219 6.59375 29.9844 6.59375
Q38.4219 6.59375 43.0156 9.90625
Q47.6094 13.2344 47.6094 19.3906
Q47.6094 24.75 44.3125 27.7812
Q41.0156 30.8125 33.5 32.3281
L27.4844 33.5
Q16.4531 35.6875 11.5156 40.375
Q6.59375 45.0625 6.59375 53.4219
Q6.59375 63.0938 13.4062 68.6562
Q20.2188 74.2188 32.1719 74.2188
Q37.3125 74.2188 42.625 73.2812
Q47.9531 72.3594 53.5156 70.5156" id="DejaVuSans-53"/>
       <path d="
M56.2031 29.5938
L56.2031 25.2031
L14.8906 25.2031
Q15.4844 15.9219 20.4844 11.0625
Q25.4844 6.20312 34.4219 6.20312
Q39.5938 6.20312 44.4531 7.46875
Q49.3125 8.73438 54.1094 11.2812
L54.1094 2.78125
Q49.2656 0.734375 44.1875 -0.34375
Q39.1094 -1.42188 33.8906 -1.42188
Q20.7969 -1.42188 13.1562 6.1875
Q5.51562 13.8125 5.51562 26.8125
Q5.51562 40.2344 12.7656 48.1094
Q20.0156 56 32.3281 56
Q43.3594 56 49.7812 48.8906
Q56.2031 41.7969 56.2031 29.5938
M47.2188 32.2344
Q47.125 39.5938 43.0938 43.9844
Q39.0625 48.3906 32.4219 48.3906
Q24.9062 48.3906 20.3906 44.1406
Q15.875 39.8906 15.1875 32.1719
z
" id="DejaVuSans-65"/>
       <path d="
M18.1094 8.20312
L18.1094 -20.7969
L9.07812 -20.7969
L9.07812 54.6875
L18.1094 54.6875
L18.1094 46.3906
Q20.9531 51.2656 25.2656 53.625
Q29.5938 56 35.5938 56
Q45.5625 56 51.7812 48.0938
Q58.0156 40.1875 58.0156 27.2969
Q58.0156 14.4062 51.7812 6.48438
Q45.5625 -1.42188 35.5938 -1.42188
Q29.5938 -1.42188 25.2656 0.953125
Q20.9531 3.32812 18.1094 8.20312
M48.6875 27.2969
Q48.6875 37.2031 44.6094 42.8438
Q40.5312 48.4844 33.4062 48.4844
Q26.2656 48.4844 22.1875 42.8438
Q18.1094 37.2031 18.1094 27.2969
Q18.1094 17.3906 22.1875 11.75
Q26.2656 6.10938 33.4062 6.10938
Q40.5312 6.10938 44.6094 11.75
Q48.6875 17.3906 48.6875 27.2969" id="DejaVuSans-70"/>
      </defs>
      <g transform="translate(118.749178645 303.7075)rotate(-90.0)scale(0.12 -0.12)">
       <use xlink:href="#DejaVuSans-53"/>
       <use x="63.4765625" xlink:href="#DejaVuSans-65"/>
       <use x="125.0" xlink:href="#DejaVuSans-70"/>
       <use x="188.4765625" xlink:href="#DejaVuSans-20"/>
       <use x="220.263671875" xlink:href="#DejaVuSans-32"/>
       <use x="283.88671875" xlink:href="#DejaVuSans-30"/>
       <use x="347.509765625" xlink:href="#DejaVuSans-31"/>
       <use x="411.1328125" xlink:href="#DejaVuSans-34"/>
      </g>
     </g>
    </g>
    <g id="xtick_2">
     <g id="line2d_35">
      <g>
       <use style="stroke:#000000;stroke-width:0.5;" x="184.567292094" xlink:href="#m93b0483c22" y="243.406875"/>
      </g>
     </g>
     <g id="line2d_36">
      <g>
       <use style="stroke:#000000;stroke-width:0.5;" x="184.567292094" xlink:href="#m741efc42ff" y="13.006875"/>
      </g>
     </g>
     <g id="text_2">
      <!-- Mar 2015 -->
      <defs>
       <path d="
M9.8125 72.9062
L24.5156 72.9062
L43.1094 23.2969
L61.8125 72.9062
L76.5156 72.9062
L76.5156 0
L66.8906 0
L66.8906 64.0156
L48.0938 14.0156
L38.1875 14.0156
L19.3906 64.0156
L19.3906 0
L9.8125 0
z
" id="DejaVuSans-4d"/>
       <path d="
M41.1094 46.2969
Q39.5938 47.1719 37.8125 47.5781
Q36.0312 48 33.8906 48
Q26.2656 48 22.1875 43.0469
Q18.1094 38.0938 18.1094 28.8125
L18.1094 0
L9.07812 0
L9.07812 54.6875
L18.1094 54.6875
L18.1094 46.1875
Q20.9531 51.1719 25.4844 53.5781
Q30.0312 56 36.5312 56
Q37.4531 56 38.5781 55.875
Q39.7031 55.7656 41.0625 55.5156
z
" id="DejaVuSans-72"/>
       <path d="
M10.7969 72.9062
L49.5156 72.9062
L49.5156 64.5938
L19.8281 64.5938
L19.8281 46.7344
Q21.9688 47.4688 24.1094 47.8281
Q26.2656 48.1875 28.4219 48.1875
Q40.625 48.1875 47.75 41.5
Q54.8906 34.8125 54.8906 23.3906
Q54.8906 11.625 47.5625 5.09375
Q40.2344 -1.42188 26.9062 -1.42188
Q22.3125 -1.42188 17.5469 -0.640625
Q12.7969 0.140625 7.71875 1.70312
L7.71875 11.625
Q12.1094 9.23438 16.7969 8.0625
Q21.4844 6.89062 26.7031 6.89062
Q35.1562 6.89062 40.0781 11.3281
Q45.0156 15.7656 45.0156 23.3906
Q45.0156 31 40.0781 35.4375
Q35.1562 39.8906 26.7031 39.8906
Q22.75 39.8906 18.8125 39.0156
Q14.8906 38.1406 10.7969 36.2812
z
" id="DejaVuSans-35"/>
       <path d="
M34.2812 27.4844
Q23.3906 27.4844 19.1875 25
Q14.9844 22.5156 14.9844 16.5
Q14.9844 11.7188 18.1406 8.90625
Q21.2969 6.10938 26.7031 6.10938
Q34.1875 6.10938 38.7031 11.4062
Q43.2188 16.7031 43.2188 25.4844
L43.2188 27.4844
z

M52.2031 31.2031
L52.2031 0
L43.2188 0
L43.2188 8.29688
Q40.1406 3.32812 35.5469 0.953125
Q30.9531 -1.42188 24.3125 -1.42188
Q15.9219 -1.42188 10.9531 3.29688
Q6 8.01562 6 15.9219
Q6 25.1406 12.1719 29.8281
Q18.3594 34.5156 30.6094 34.5156
L43.2188 34.5156
L43.2188 35.4062
Q43.2188 41.6094 39.1406 45
Q35.0625 48.3906 27.6875 48.3906
Q23 48.3906 18.5469 47.2656
Q14.1094 46.1406 10.0156 43.8906
L10.0156 52.2031
Q14.9375 54.1094 19.5781 55.0469
Q24.2188 56 28.6094 56
Q40.4844 56 46.3438 49.8438
Q52.2031 43.7031 52.2031 31.2031" id="DejaVuSans-61"/>
      </defs>
      <g transform="translate(187.878542094 303.353125)rotate(-90.0)scale(0.12 -0.12)">
       <use xlink:href="#DejaVuSans-4d"/>
       <use x="86.279296875" xlink:href="#DejaVuSans-61"/>
       <use x="147.55859375" xlink:href="#DejaVuSans-72"/>
       <use x="188.671875" xlink:href="#DejaVuSans-20"/>
       <use x="220.458984375" xlink:href="#DejaVuSans-32"/>
       <use x="284.08203125" xlink:href="#DejaVuSans-30"/>
       <use x="347.705078125" xlink:href="#DejaVuSans-31"/>
       <use x="411.328125" xlink:href="#DejaVuSans-35"/>
      </g>
     </g>
    </g>
    <g id="xtick_3">
     <g id="line2d_37">
      <g>
       <use style="stroke:#000000;stroke-width:0.5;" x="254.842446099" xlink:href="#m93b0483c22" y="243.406875"/>
      </g>
     </g>
     <g id="line2d_38">
      <g>
       <use style="stroke:#000000;stroke-width:0.5;" x="254.842446099" xlink:href="#m741efc42ff" y="13.006875"/>
      </g>
     </g>
     <g id="text_3">
      <!-- Sep 2015 -->
      <g transform="translate(258.153696099 303.3325)rotate(-90.0)scale(0.12 -0.12)">
       <use xlink:href="#DejaVuSans-53"/>
       <use x="63.4765625" xlink:href="#DejaVuSans-65"/>
       <use x="125.0" xlink:href="#DejaVuSans-70"/>
       <use x="188.4765625" xlink:href="#DejaVuSans-20"/>
       <use x="220.263671875" xlink:href="#DejaVuSans-32"/>
       <use x="283.88671875" xlink:href="#DejaVuSans-30"/>
       <use x="347.509765625" xlink:href="#DejaVuSans-31"/>
       <use x="411.1328125" xlink:href="#DejaVuSans-35"/>
      </g>
     </g>
    </g>
    <g id="xtick_4">
     <g id="line2d_39">
      <g>
       <use style="stroke:#000000;stroke-width:0.5;" x="324.353739733" xlink:href="#m93b0483c22" y="243.406875"/>
      </g>
     </g>
     <g id="line2d_40">
      <g>
       <use style="stroke:#000000;stroke-width:0.5;" x="324.353739733" xlink:href="#m741efc42ff" y="13.006875"/>
      </g>
     </g>
     <g id="text_4">
      <!-- Mar 2016 -->
      <defs>
       <path d="
M33.0156 40.375
Q26.375 40.375 22.4844 35.8281
Q18.6094 31.2969 18.6094 23.3906
Q18.6094 15.5312 22.4844 10.9531
Q26.375 6.39062 33.0156 6.39062
Q39.6562 6.39062 43.5312 10.9531
Q47.4062 15.5312 47.4062 23.3906
Q47.4062 31.2969 43.5312 35.8281
Q39.6562 40.375 33.0156 40.375
M52.5938 71.2969
L52.5938 62.3125
Q48.875 64.0625 45.0938 64.9844
Q41.3125 65.9219 37.5938 65.9219
Q27.8281 65.9219 22.6719 59.3281
Q17.5312 52.7344 16.7969 39.4062
Q19.6719 43.6562 24.0156 45.9219
Q28.375 48.1875 33.5938 48.1875
Q44.5781 48.1875 50.9531 41.5156
Q57.3281 34.8594 57.3281 23.3906
Q57.3281 12.1562 50.6875 5.35938
Q44.0469 -1.42188 33.0156 -1.42188
Q20.3594 -1.42188 13.6719 8.26562
Q6.98438 17.9688 6.98438 36.375
Q6.98438 53.6562 15.1875 63.9375
Q23.3906 74.2188 37.2031 74.2188
Q40.9219 74.2188 44.7031 73.4844
Q48.4844 72.75 52.5938 71.2969" id="DejaVuSans-36"/>
      </defs>
      <g transform="translate(327.664989733 303.645625)rotate(-90.0)scale(0.12 -0.12)">
       <use xlink:href="#DejaVuSans-4d"/>
       <use x="86.279296875" xlink:href="#DejaVuSans-61"/>
       <use x="147.55859375" xlink:href="#DejaVuSans-72"/>
       <use x="188.671875" xlink:href="#DejaVuSans-20"/>
       <use x="220.458984375" xlink:href="#DejaVuSans-32"/>
       <use x="284.08203125" xlink:href="#DejaVuSans-30"/>
       <use x="347.705078125" xlink:href="#DejaVuSans-31"/>
       <use x="411.328125" xlink:href="#DejaVuSans-36"/>
      </g>
     </g>
    </g>
    <g id="xtick_5">
     <g id="line2d_41">
      <g>
       <use style="stroke:#000000;stroke-width:0.5;" x="394.628893737" xlink:href="#m93b0483c22" y="243.406875"/>
      </g>
     </g>
     <g id="line2d_42">
      <g>
       <use style="stroke:#000000;stroke-width:0.5;" x="394.628893737" xlink:href="#m741efc42ff" y="13.006875"/>
      </g>
     </g>
     <g id="text_5">
      <!-- Sep 2016 -->
      <g transform="translate(397.940143737 303.625)rotate(-90.0)scale(0.12 -0.12)">
       <use xlink:href="#DejaVuSans-53"/>
       <use x="63.4765625" xlink:href="#DejaVuSans-65"/>
       <use x="125.0" xlink:href="#DejaVuSans-70"/>
       <use x="188.4765625" xlink:href="#DejaVuSans-20"/>
       <use x="220.263671875" xlink:href="#DejaVuSans-32"/>
       <use x="283.88671875" xlink:href="#DejaVuSans-30"/>
       <use x="347.509765625" xlink:href="#DejaVuSans-31"/>
       <use x="411.1328125" xlink:href="#DejaVuSans-36"/>
      </g>
     </g>
    </g>
    <g id="xtick_6">
     <g id="line2d_43">
      <g>
       <use style="stroke:#000000;stroke-width:0.5;" x="463.758257187" xlink:href="#m93b0483c22" y="243.406875"/>
      </g>
     </g>
     <g id="line2d_44">
      <g>
       <use style="stroke:#000000;stroke-width:0.5;" x="463.758257187" xlink:href="#m741efc42ff" y="13.006875"/>
      </g>
     </g>
     <g id="text_6">
      <!-- Mar 2017 -->
      <defs>
       <path d="
M8.20312 72.9062
L55.0781 72.9062
L55.0781 68.7031
L28.6094 0
L18.3125 0
L43.2188 64.5938
L8.20312 64.5938
z
" id="DejaVuSans-37"/>
      </defs>
      <g transform="translate(467.069507187 303.375625)rotate(-90.0)scale(0.12 -0.12)">
       <use xlink:href="#DejaVuSans-4d"/>
       <use x="86.279296875" xlink:href="#DejaVuSans-61"/>
       <use x="147.55859375" xlink:href="#DejaVuSans-72"/>
       <use x="188.671875" xlink:href="#DejaVuSans-20"/>
       <use x="220.458984375" xlink:href="#DejaVuSans-32"/>
       <use x="284.08203125" xlink:href="#DejaVuSans-30"/>
       <use x="347.705078125" xlink:href="#DejaVuSans-31"/>
       <use x="411.328125" xlink:href="#DejaVuSans-37"/>
      </g>
     </g>
    </g>
    <g id="xtick_7">
     <g id="line2d_45">
      <g>
       <use style="stroke:#000000;stroke-width:0.5;" x="534.033411191" xlink:href="#m93b0483c22" y="243.406875"/>
      </g>
     </g>
     <g id="line2d_46">
      <g>
       <use style="stroke:#000000;stroke-width:0.5;" x="534.033411191" xlink:href="#m741efc42ff" y="13.006875"/>
      </g>
     </g>
     <g id="text_7">
      <!-- Sep 2017 -->
      <g transform="translate(537.344661191 303.355)rotate(-90.0)scale(0.12 -0.12)">
       <use xlink:href="#DejaVuSans-53"/>
       <use x="63.4765625" xlink:href="#DejaVuSans-65"/>
       <use x="125.0" xlink:href="#DejaVuSans-70"/>
       <use x="188.4765625" xlink:href="#DejaVuSans-20"/>
       <use x="220.263671875" xlink:href="#DejaVuSans-32"/>
       <use x="283.88671875" xlink:href="#DejaVuSans-30"/>
       <use x="347.509765625" xlink:href="#DejaVuSans-31"/>
       <use x="411.1328125" xlink:href="#DejaVuSans-37"/>
      </g>
     </g>
    </g>
    <g id="xtick_8">
     <g id="line2d_47">
      <g>
       <use style="stroke:#000000;stroke-width:0.5;" x="603.162774641" xlink:href="#m93b0483c22" y="243.406875"/>
      </g>
     </g>
     <g id="line2d_48">
      <g>
       <use style="stroke:#000000;stroke-width:0.5;" x="603.162774641" xlink:href="#m741efc42ff" y="13.006875"/>
      </g>
     </g>
     <g id="text_8">
      <!-- Mar 2018 -->
      <defs>
       <path d="
M31.7812 34.625
Q24.75 34.625 20.7188 30.8594
Q16.7031 27.0938 16.7031 20.5156
Q16.7031 13.9219 20.7188 10.1562
Q24.75 6.39062 31.7812 6.39062
Q38.8125 6.39062 42.8594 10.1719
Q46.9219 13.9688 46.9219 20.5156
Q46.9219 27.0938 42.8906 30.8594
Q38.875 34.625 31.7812 34.625
M21.9219 38.8125
Q15.5781 40.375 12.0312 44.7188
Q8.5 49.0781 8.5 55.3281
Q8.5 64.0625 14.7188 69.1406
Q20.9531 74.2188 31.7812 74.2188
Q42.6719 74.2188 48.875 69.1406
Q55.0781 64.0625 55.0781 55.3281
Q55.0781 49.0781 51.5312 44.7188
Q48 40.375 41.7031 38.8125
Q48.8281 37.1562 52.7969 32.3125
Q56.7812 27.4844 56.7812 20.5156
Q56.7812 9.90625 50.3125 4.23438
Q43.8438 -1.42188 31.7812 -1.42188
Q19.7344 -1.42188 13.25 4.23438
Q6.78125 9.90625 6.78125 20.5156
Q6.78125 27.4844 10.7812 32.3125
Q14.7969 37.1562 21.9219 38.8125
M18.3125 54.3906
Q18.3125 48.7344 21.8438 45.5625
Q25.3906 42.3906 31.7812 42.3906
Q38.1406 42.3906 41.7188 45.5625
Q45.3125 48.7344 45.3125 54.3906
Q45.3125 60.0625 41.7188 63.2344
Q38.1406 66.4062 31.7812 66.4062
Q25.3906 66.4062 21.8438 63.2344
Q18.3125 60.0625 18.3125 54.3906" id="DejaVuSans-38"/>
      </defs>
      <g transform="translate(606.474024641 303.58)rotate(-90.0)scale(0.12 -0.12)">
       <use xlink:href="#DejaVuSans-4d"/>
       <use x="86.279296875" xlink:href="#DejaVuSans-61"/>
       <use x="147.55859375" xlink:href="#DejaVuSans-72"/>
       <use x="188.671875" xlink:href="#DejaVuSans-20"/>
       <use x="220.458984375" xlink:href="#DejaVuSans-32"/>
       <use x="284.08203125" xlink:href="#DejaVuSans-30"/>
       <use x="347.705078125" xlink:href="#DejaVuSans-31"/>
       <use x="411.328125" xlink:href="#DejaVuSans-38"/>
      </g>
     </g>
    </g>
   </g>
   <g id="matplotlib.axis_2">
    <g id="ytick_1">
     <g id="line2d_49">
      <defs>
       <path d="
M0 0
L4 0" id="m728421d6d4" style="stroke:#000000;stroke-width:0.5;"/>
      </defs>
      <g>
       <use style="stroke:#000000;stroke-width:0.5;" x="56.23875" xlink:href="#m728421d6d4" y="243.406875"/>
      </g>
     </g>
     <g id="line2d_50">
      <defs>
       <path d="
M0 0
L-4 0" id="mcb0005524f" style="stroke:#000000;stroke-width:0.5;"/>
      </defs>
      <g>
       <use style="stroke:#000000;stroke-width:0.5;" x="614.23875" xlink:href="#mcb0005524f" y="243.406875"/>
      </g>
     </g>
     <g id="text_9">
      <!-- 200 -->
      <g transform="translate(31.01 246.718125)scale(0.12 -0.12)">
       <use xlink:href="#DejaVuSans-32"/>
       <use x="63.623046875" xlink:href="#DejaVuSans-30"/>
       <use x="127.24609375" xlink:href="#DejaVuSans-30"/>
      </g>
     </g>
    </g>
    <g id="ytick_2">
     <g id="line2d_51">
      <g>
       <use style="stroke:#000000;stroke-width:0.5;" x="56.23875" xlink:href="#m728421d6d4" y="214.606875"/>
      </g>
     </g>
     <g id="line2d_52">
      <g>
       <use style="stroke:#000000;stroke-width:0.5;" x="614.23875" xlink:href="#mcb0005524f" y="214.606875"/>
      </g>
     </g>
     <g id="text_10">
      <!-- 400 -->
      <g transform="translate(30.7175 217.918125)scale(0.12 -0.12)">
       <use xlink:href="#DejaVuSans-34"/>
       <use x="63.623046875" xlink:href="#DejaVuSans-30"/>
       <use x="127.24609375" xlink:href="#DejaVuSans-30"/>
      </g>
     </g>
    </g>
    <g id="ytick_3">
     <g id="line2d_53">
      <g>
       <use style="stroke:#000000;stroke-width:0.5;" x="56.23875" xlink:href="#m728421d6d4" y="185.806875"/>
      </g>
     </g>
     <g id="line2d_54">
      <g>
       <use style="stroke:#000000;stroke-width:0.5;" x="614.23875" xlink:href="#mcb0005524f" y="185.806875"/>
      </g>
     </g>
     <g id="text_11">
      <!-- 600 -->
      <g transform="translate(30.96875 189.118125)scale(0.12 -0.12)">
       <use xlink:href="#DejaVuSans-36"/>
       <use x="63.623046875" xlink:href="#DejaVuSans-30"/>
       <use x="127.24609375" xlink:href="#DejaVuSans-30"/>
      </g>
     </g>
    </g>
    <g id="ytick_4">
     <g id="line2d_55">
      <g>
       <use style="stroke:#000000;stroke-width:0.5;" x="56.23875" xlink:href="#m728421d6d4" y="157.006875"/>
      </g>
     </g>
     <g id="line2d_56">
      <g>
       <use style="stroke:#000000;stroke-width:0.5;" x="614.23875" xlink:href="#mcb0005524f" y="157.006875"/>
      </g>
     </g>
     <g id="text_12">
      <!-- 800 -->
      <g transform="translate(30.944375 160.318125)scale(0.12 -0.12)">
       <use xlink:href="#DejaVuSans-38"/>
       <use x="63.623046875" xlink:href="#DejaVuSans-30"/>
       <use x="127.24609375" xlink:href="#DejaVuSans-30"/>
      </g>
     </g>
    </g>
    <g id="ytick_5">
     <g id="line2d_57">
      <g>
       <use style="stroke:#000000;stroke-width:0.5;" x="56.23875" xlink:href="#m728421d6d4" y="128.206875"/>
      </g>
     </g>
     <g id="line2d_58">
      <g>
       <use style="stroke:#000000;stroke-width:0.5;" x="614.23875" xlink:href="#mcb0005524f" y="128.206875"/>
      </g>
     </g>
     <g id="text_13">
      <!-- 1000 -->
      <g transform="translate(23.81375 131.518125)scale(0.12 -0.12)">
       <use xlink:href="#DejaVuSans-31"/>
       <use x="63.623046875" xlink:href="#DejaVuSans-30"/>
       <use x="127.24609375" xlink:href="#DejaVuSans-30"/>
       <use x="190.869140625" xlink:href="#DejaVuSans-30"/>
      </g>
     </g>
    </g>
    <g id="ytick_6">
     <g id="line2d_59">
      <g>
       <use style="stroke:#000000;stroke-width:0.5;" x="56.23875" xlink:href="#m728421d6d4" y="99.406875"/>
      </g>
     </g>
     <g id="line2d_60">
      <g>
       <use style="stroke:#000000;stroke-width:0.5;" x="614.23875" xlink:href="#mcb0005524f" y="99.406875"/>
      </g>
     </g>
     <g id="text_14">
      <!-- 1200 -->
      <g transform="translate(23.81375 102.718125)scale(0.12 -0.12)">
       <use xlink:href="#DejaVuSans-31"/>
       <use x="63.623046875" xlink:href="#DejaVuSans-32"/>
       <use x="127.24609375" xlink:href="#DejaVuSans-30"/>
       <use x="190.869140625" xlink:href="#DejaVuSans-30"/>
      </g>
     </g>
    </g>
    <g id="ytick_7">
     <g id="line2d_61">
      <g>
       <use style="stroke:#000000;stroke-width:0.5;" x="56.23875" xlink:href="#m728421d6d4" y="70.606875"/>
      </g>
     </g>
     <g id="line2d_62">
      <g>
       <use style="stroke:#000000;stroke-width:0.5;" x="614.23875" xlink:href="#mcb0005524f" y="70.606875"/>
      </g>
     </g>
     <g id="text_15">
      <!-- 1400 -->
      <g transform="translate(23.81375 73.918125)scale(0.12 -0.12)">
       <use xlink:href="#DejaVuSans-31"/>
       <use x="63.623046875" xlink:href="#DejaVuSans-34"/>
       <use x="127.24609375" xlink:href="#DejaVuSans-30"/>
       <use x="190.869140625" xlink:href="#DejaVuSans-30"/>
      </g>
     </g>
    </g>
    <g id="ytick_8">
     <g id="line2d_63">
      <g>
       <use style="stroke:#000000;stroke-width:0.5;" x="56.23875" xlink:href="#m728421d6d4" y="41.806875"/>
      </g>
     </g>
     <g id="line2d_64">
      <g>
       <use style="stroke:#000000;stroke-width:0.5;" x="614.23875" xlink:href="#mcb0005524f" y="41.806875"/>
      </g>
     </g>
     <g id="text_16">
      <!-- 1600 -->
      <g transform="translate(23.81375 45.118125)scale(0.12 -0.12)">
       <use xlink:href="#DejaVuSans-31"/>
       <use x="63.623046875" xlink:href="#DejaVuSans-36"/>
       <use x="127.24609375" xlink:href="#DejaVuSans-30"/>
       <use x="190.869140625" xlink:href="#DejaVuSans-30"/>
      </g>
     </g>
    </g>
    <g id="ytick_9">
     <g id="line2d_65">
      <g>
       <use style="stroke:#000000;stroke-width:0.5;" x="56.23875" xlink:href="#m728421d6d4" y="13.006875"/>
      </g>
     </g>
     <g id="line2d_66">
      <g>
       <use style="stroke:#000000;stroke-width:0.5;" x="614.23875" xlink:href="#mcb0005524f" y="13.006875"/>
      </g>
     </g>
     <g id="text_17">
      <!-- 1800 -->
      <g transform="translate(23.81375 16.318125)scale(0.12 -0.12)">
       <use xlink:href="#DejaVuSans-31"/>
       <use x="63.623046875" xlink:href="#DejaVuSans-38"/>
       <use x="127.24609375" xlink:href="#DejaVuSans-30"/>
       <use x="190.869140625" xlink:href="#DejaVuSans-30"/>
      </g>
     </g>
    </g>
    <g id="text_18">
     <!-- Number of Tagged Packages -->
     <defs>
      <path d="
M9.8125 72.9062
L23.0938 72.9062
L55.4219 11.9219
L55.4219 72.9062
L64.9844 72.9062
L64.9844 0
L51.7031 0
L19.3906 60.9844
L19.3906 0
L9.8125 0
z
" id="DejaVuSans-4e"/>
      <path d="
M30.6094 48.3906
Q23.3906 48.3906 19.1875 42.75
Q14.9844 37.1094 14.9844 27.2969
Q14.9844 17.4844 19.1562 11.8438
Q23.3438 6.20312 30.6094 6.20312
Q37.7969 6.20312 41.9844 11.8594
Q46.1875 17.5312 46.1875 27.2969
Q46.1875 37.0156 41.9844 42.7031
Q37.7969 48.3906 30.6094 48.3906
M30.6094 56
Q42.3281 56 49.0156 48.375
Q55.7188 40.7656 55.7188 27.2969
Q55.7188 13.875 49.0156 6.21875
Q42.3281 -1.42188 30.6094 -1.42188
Q18.8438 -1.42188 12.1719 6.21875
Q5.51562 13.875 5.51562 27.2969
Q5.51562 40.7656 12.1719 48.375
Q18.8438 56 30.6094 56" id="DejaVuSans-6f"/>
      <path d="
M52 44.1875
Q55.375 50.25 60.0625 53.125
Q64.75 56 71.0938 56
Q79.6406 56 84.2812 50.0156
Q88.9219 44.0469 88.9219 33.0156
L88.9219 0
L79.8906 0
L79.8906 32.7188
Q79.8906 40.5781 77.0938 44.375
Q74.3125 48.1875 68.6094 48.1875
Q61.625 48.1875 57.5625 43.5469
Q53.5156 38.9219 53.5156 30.9062
L53.5156 0
L44.4844 0
L44.4844 32.7188
Q44.4844 40.625 41.7031 44.4062
Q38.9219 48.1875 33.1094 48.1875
Q26.2188 48.1875 22.1562 43.5312
Q18.1094 38.875 18.1094 30.9062
L18.1094 0
L9.07812 0
L9.07812 54.6875
L18.1094 54.6875
L18.1094 46.1875
Q21.1875 51.2188 25.4844 53.6094
Q29.7812 56 35.6875 56
Q41.6562 56 45.8281 52.9688
Q50 49.9531 52 44.1875" id="DejaVuSans-6d"/>
      <path d="
M9.07812 75.9844
L18.1094 75.9844
L18.1094 31.1094
L44.9219 54.6875
L56.3906 54.6875
L27.3906 29.1094
L57.625 0
L45.9062 0
L18.1094 26.7031
L18.1094 0
L9.07812 0
z
" id="DejaVuSans-6b"/>
      <path d="
M37.1094 75.9844
L37.1094 68.5
L28.5156 68.5
Q23.6875 68.5 21.7969 66.5469
Q19.9219 64.5938 19.9219 59.5156
L19.9219 54.6875
L34.7188 54.6875
L34.7188 47.7031
L19.9219 47.7031
L19.9219 0
L10.8906 0
L10.8906 47.7031
L2.29688 47.7031
L2.29688 54.6875
L10.8906 54.6875
L10.8906 58.5
Q10.8906 67.625 15.1406 71.7969
Q19.3906 75.9844 28.6094 75.9844
z
" id="DejaVuSans-66"/>
      <path d="
M8.5 21.5781
L8.5 54.6875
L17.4844 54.6875
L17.4844 21.9219
Q17.4844 14.1562 20.5 10.2656
Q23.5312 6.39062 29.5938 6.39062
Q36.8594 6.39062 41.0781 11.0312
Q45.3125 15.6719 45.3125 23.6875
L45.3125 54.6875
L54.2969 54.6875
L54.2969 0
L45.3125 0
L45.3125 8.40625
Q42.0469 3.42188 37.7188 1
Q33.4062 -1.42188 27.6875 -1.42188
Q18.2656 -1.42188 13.375 4.4375
Q8.5 10.2969 8.5 21.5781
M31.1094 56
z
" id="DejaVuSans-75"/>
      <path d="
M45.4062 27.9844
Q45.4062 37.75 41.375 43.1094
Q37.3594 48.4844 30.0781 48.4844
Q22.8594 48.4844 18.8281 43.1094
Q14.7969 37.75 14.7969 27.9844
Q14.7969 18.2656 18.8281 12.8906
Q22.8594 7.51562 30.0781 7.51562
Q37.3594 7.51562 41.375 12.8906
Q45.4062 18.2656 45.4062 27.9844
M54.3906 6.78125
Q54.3906 -7.17188 48.1875 -13.9844
Q42 -20.7969 29.2031 -20.7969
Q24.4688 -20.7969 20.2656 -20.0938
Q16.0625 -19.3906 12.1094 -17.9219
L12.1094 -9.1875
Q16.0625 -11.3281 19.9219 -12.3438
Q23.7812 -13.375 27.7812 -13.375
Q36.625 -13.375 41.0156 -8.76562
Q45.4062 -4.15625 45.4062 5.17188
L45.4062 9.625
Q42.625 4.78125 38.2812 2.39062
Q33.9375 0 27.875 0
Q17.8281 0 11.6719 7.65625
Q5.51562 15.3281 5.51562 27.9844
Q5.51562 40.6719 11.6719 48.3281
Q17.8281 56 27.875 56
Q33.9375 56 38.2812 53.6094
Q42.625 51.2188 45.4062 46.3906
L45.4062 54.6875
L54.3906 54.6875
z
" id="DejaVuSans-67"/>
      <path d="
M45.4062 46.3906
L45.4062 75.9844
L54.3906 75.9844
L54.3906 0
L45.4062 0
L45.4062 8.20312
Q42.5781 3.32812 38.25 0.953125
Q33.9375 -1.42188 27.875 -1.42188
Q17.9688 -1.42188 11.7344 6.48438
Q5.51562 14.4062 5.51562 27.2969
Q5.51562 40.1875 11.7344 48.0938
Q17.9688 56 27.875 56
Q33.9375 56 38.25 53.625
Q42.5781 51.2656 45.4062 46.3906
M14.7969 27.2969
Q14.7969 17.3906 18.875 11.75
Q22.9531 6.10938 30.0781 6.10938
Q37.2031 6.10938 41.2969 11.75
Q45.4062 17.3906 45.4062 27.2969
Q45.4062 37.2031 41.2969 42.8438
Q37.2031 48.4844 30.0781 48.4844
Q22.9531 48.4844 18.875 42.8438
Q14.7969 37.2031 14.7969 27.2969" id="DejaVuSans-64"/>
      <path d="
M19.6719 64.7969
L19.6719 37.4062
L32.0781 37.4062
Q38.9688 37.4062 42.7188 40.9688
Q46.4844 44.5312 46.4844 51.125
Q46.4844 57.6719 42.7188 61.2344
Q38.9688 64.7969 32.0781 64.7969
z

M9.8125 72.9062
L32.0781 72.9062
Q44.3438 72.9062 50.6094 67.3594
Q56.8906 61.8125 56.8906 51.125
Q56.8906 40.3281 50.6094 34.8125
Q44.3438 29.2969 32.0781 29.2969
L19.6719 29.2969
L19.6719 0
L9.8125 0
z
" id="DejaVuSans-50"/>
      <path d="
M48.6875 27.2969
Q48.6875 37.2031 44.6094 42.8438
Q40.5312 48.4844 33.4062 48.4844
Q26.2656 48.4844 22.1875 42.8438
Q18.1094 37.2031 18.1094 27.2969
Q18.1094 17.3906 22.1875 11.75
Q26.2656 6.10938 33.4062 6.10938
Q40.5312 6.10938 44.6094 11.75
Q48.6875 17.3906 48.6875 27.2969
M18.1094 46.3906
Q20.9531 51.2656 25.2656 53.625
Q29.5938 56 35.5938 56
Q45.5625 56 51.7812 48.0938
Q58.0156 40.1875 58.0156 27.2969
Q58.0156 14.4062 51.7812 6.48438
Q45.5625 -1.42188 35.5938 -1.42188
Q29.5938 -1.42188 25.2656 0.953125
Q20.9531 3.32812 18.1094 8.20312
L18.1094 0
L9.07812 0
L9.07812 75.9844
L18.1094 75.9844
z
" id="DejaVuSans-62"/>
      <path d="
M48.7812 52.5938
L48.7812 44.1875
Q44.9688 46.2969 41.1406 47.3438
Q37.3125 48.3906 33.4062 48.3906
Q24.6562 48.3906 19.8125 42.8438
Q14.9844 37.3125 14.9844 27.2969
Q14.9844 17.2812 19.8125 11.7344
Q24.6562 6.20312 33.4062 6.20312
Q37.3125 6.20312 41.1406 7.25
Q44.9688 8.29688 48.7812 10.4062
L48.7812 2.09375
Q45.0156 0.34375 40.9844 -0.53125
Q36.9688 -1.42188 32.4219 -1.42188
Q20.0625 -1.42188 12.7812 6.34375
Q5.51562 14.1094 5.51562 27.2969
Q5.51562 40.6719 12.8594 48.3281
Q20.2188 56 33.0156 56
Q37.1562 56 41.1094 55.1406
Q45.0625 54.2969 48.7812 52.5938" id="DejaVuSans-63"/>
      <path d="
M44.2812 53.0781
L44.2812 44.5781
Q40.4844 46.5312 36.375 47.5
Q32.2812 48.4844 27.875 48.4844
Q21.1875 48.4844 17.8438 46.4375
Q14.5 44.3906 14.5 40.2812
Q14.5 37.1562 16.8906 35.375
Q19.2812 33.5938 26.5156 31.9844
L29.5938 31.2969
Q39.1562 29.25 43.1875 25.5156
Q47.2188 21.7812 47.2188 15.0938
Q47.2188 7.46875 41.1875 3.01562
Q35.1562 -1.42188 24.6094 -1.42188
Q20.2188 -1.42188 15.4531 -0.5625
Q10.6875 0.296875 5.42188 2
L5.42188 11.2812
Q10.4062 8.6875 15.2344 7.39062
Q20.0625 6.10938 24.8125 6.10938
Q31.1562 6.10938 34.5625 8.28125
Q37.9844 10.4531 37.9844 14.4062
Q37.9844 18.0625 35.5156 20.0156
Q33.0625 21.9688 24.7031 23.7812
L21.5781 24.5156
Q13.2344 26.2656 9.51562 29.9062
Q5.8125 33.5469 5.8125 39.8906
Q5.8125 47.6094 11.2812 51.7969
Q16.75 56 26.8125 56
Q31.7812 56 36.1719 55.2656
Q40.5781 54.5469 44.2812 53.0781" id="DejaVuSans-73"/>
      <path d="
M-0.296875 72.9062
L61.375 72.9062
L61.375 64.5938
L35.5 64.5938
L35.5 0
L25.5938 0
L25.5938 64.5938
L-0.296875 64.5938
z
" id="DejaVuSans-54"/>
     </defs>
     <g transform="translate(16.318125 212.98875)rotate(-90.0)scale(0.12 -0.12)">
      <use xlink:href="#DejaVuSans-4e"/>
      <use x="74.8046875" xlink:href="#DejaVuSans-75"/>
      <use x="138.18359375" xlink:href="#DejaVuSans-6d"/>
      <use x="235.595703125" xlink:href="#DejaVuSans-62"/>
      <use x="299.072265625" xlink:href="#DejaVuSans-65"/>
      <use x="360.595703125" xlink:href="#DejaVuSans-72"/>
      <use x="401.708984375" xlink:href="#DejaVuSans-20"/>
      <use x="433.49609375" xlink:href="#DejaVuSans-6f"/>
      <use x="494.677734375" xlink:href="#DejaVuSans-66"/>
      <use x="529.8828125" xlink:href="#DejaVuSans-20"/>
      <use x="561.669921875" xlink:href="#DejaVuSans-54"/>
      <use x="606.25390625" xlink:href="#DejaVuSans-61"/>
      <use x="667.533203125" xlink:href="#DejaVuSans-67"/>
      <use x="731.009765625" xlink:href="#DejaVuSans-67"/>
      <use x="794.486328125" xlink:href="#DejaVuSans-65"/>
      <use x="856.009765625" xlink:href="#DejaVuSans-64"/>
      <use x="919.486328125" xlink:href="#DejaVuSans-20"/>
      <use x="951.2734375" xlink:href="#DejaVuSans-50"/>
      <use x="1007.07617188" xlink:href="#DejaVuSans-61"/>
      <use x="1068.35546875" xlink:href="#DejaVuSans-63"/>
      <use x="1123.3359375" xlink:href="#DejaVuSans-6b"/>
      <use x="1179.49609375" xlink:href="#DejaVuSans-61"/>
      <use x="1240.77539062" xlink:href="#DejaVuSans-67"/>
      <use x="1304.25195312" xlink:href="#DejaVuSans-65"/>
      <use x="1365.77539062" xlink:href="#DejaVuSans-73"/>
     </g>
    </g>
   </g>
   <g id="patch_3">
    <path d="
M56.2388 13.0069
L614.239 13.0069" style="fill:none;stroke:#000000;"/>
   </g>
   <g id="patch_4">
    <path d="
M614.239 243.407
L614.239 13.0069" style="fill:none;stroke:#000000;"/>
   </g>
   <g id="patch_5">
    <path d="
M56.2388 243.407
L614.239 243.407" style="fill:none;stroke:#000000;"/>
   </g>
   <g id="patch_6">
    <path d="
M56.2388 243.407
L56.2388 13.0069" style="fill:none;stroke:#000000;"/>
   </g>
   <g id="text_19">
    <g id="patch_7">
     <path d="
M104.018 160.199
L117.692 160.199
L117.692 125.811
L104.018 125.811
z
" style="fill:#ffffff;stroke:#ffffff;"/>
    </g>
    <!-- v0.3.0 -->
    <defs>
     <path d="
M40.5781 39.3125
Q47.6562 37.7969 51.625 33
Q55.6094 28.2188 55.6094 21.1875
Q55.6094 10.4062 48.1875 4.48438
Q40.7656 -1.42188 27.0938 -1.42188
Q22.5156 -1.42188 17.6562 -0.515625
Q12.7969 0.390625 7.625 2.20312
L7.625 11.7188
Q11.7188 9.32812 16.5938 8.10938
Q21.4844 6.89062 26.8125 6.89062
Q36.0781 6.89062 40.9375 10.5469
Q45.7969 14.2031 45.7969 21.1875
Q45.7969 27.6406 41.2812 31.2656
Q36.7656 34.9062 28.7188 34.9062
L20.2188 34.9062
L20.2188 43.0156
L29.1094 43.0156
Q36.375 43.0156 40.2344 45.9219
Q44.0938 48.8281 44.0938 54.2969
Q44.0938 59.9062 40.1094 62.9062
Q36.1406 65.9219 28.7188 65.9219
Q24.6562 65.9219 20.0156 65.0312
Q15.375 64.1562 9.8125 62.3125
L9.8125 71.0938
Q15.4375 72.6562 20.3438 73.4375
Q25.25 74.2188 29.5938 74.2188
Q40.8281 74.2188 47.3594 69.1094
Q53.9062 64.0156 53.9062 55.3281
Q53.9062 49.2656 50.4375 45.0938
Q46.9688 40.9219 40.5781 39.3125" id="DejaVuSans-33"/>
     <path d="
M2.98438 54.6875
L12.5 54.6875
L29.5938 8.79688
L46.6875 54.6875
L56.2031 54.6875
L35.6875 0
L23.4844 0
z
" id="DejaVuSans-76"/>
     <path d="
M10.6875 12.4062
L21 12.4062
L21 0
L10.6875 0
z
" id="DejaVuSans-2e"/>
    </defs>
    <g transform="translate(113.613037677 158.199316875)rotate(-90.0)scale(0.09996 -0.09996)">
     <use xlink:href="#DejaVuSans-76"/>
     <use x="59.1796875" xlink:href="#DejaVuSans-30"/>
     <use x="122.802734375" xlink:href="#DejaVuSans-2e"/>
     <use x="154.58984375" xlink:href="#DejaVuSans-33"/>
     <use x="218.212890625" xlink:href="#DejaVuSans-2e"/>
     <use x="250.0" xlink:href="#DejaVuSans-30"/>
    </g>
   </g>
   <g id="text_20">
    <g id="patch_8">
     <path d="
M116.239 131.14
L129.914 131.14
L129.914 97.0115
L116.239 97.0115
z
" style="fill:#ffffff;stroke:#ffffff;"/>
    </g>
    <!-- v0.3.1 -->
    <g transform="translate(125.834803591 129.140045625)rotate(-90.0)scale(0.09996 -0.09996)">
     <use xlink:href="#DejaVuSans-76"/>
     <use x="59.1796875" xlink:href="#DejaVuSans-30"/>
     <use x="122.802734375" xlink:href="#DejaVuSans-2e"/>
     <use x="154.58984375" xlink:href="#DejaVuSans-33"/>
     <use x="218.212890625" xlink:href="#DejaVuSans-2e"/>
     <use x="250.0" xlink:href="#DejaVuSans-31"/>
    </g>
   </g>
   <g id="text_21">
    <g id="patch_9">
     <path d="
M127.697 159.862
L141.372 159.862
L141.372 125.811
L127.697 125.811
z
" style="fill:#ffffff;stroke:#ffffff;"/>
    </g>
    <!-- v0.3.2 -->
    <g transform="translate(137.292709135 157.861951875)rotate(-90.0)scale(0.09996 -0.09996)">
     <use xlink:href="#DejaVuSans-76"/>
     <use x="59.1796875" xlink:href="#DejaVuSans-30"/>
     <use x="122.802734375" xlink:href="#DejaVuSans-2e"/>
     <use x="154.58984375" xlink:href="#DejaVuSans-33"/>
     <use x="218.212890625" xlink:href="#DejaVuSans-2e"/>
     <use x="250.0" xlink:href="#DejaVuSans-32"/>
    </g>
   </g>
   <g id="text_22">
    <g id="patch_10">
     <path d="
M140.301 131.262
L153.975 131.262
L153.975 97.0115
L140.301 97.0115
z
" style="fill:#ffffff;stroke:#ffffff;"/>
    </g>
    <!-- v0.3.3 -->
    <g transform="translate(149.896405234 129.261871875)rotate(-90.0)scale(0.09996 -0.09996)">
     <use xlink:href="#DejaVuSans-76"/>
     <use x="59.1796875" xlink:href="#DejaVuSans-30"/>
     <use x="122.802734375" xlink:href="#DejaVuSans-2e"/>
     <use x="154.58984375" xlink:href="#DejaVuSans-33"/>
     <use x="218.212890625" xlink:href="#DejaVuSans-2e"/>
     <use x="250.0" xlink:href="#DejaVuSans-33"/>
    </g>
   </g>
   <g id="text_23">
    <g id="patch_11">
     <path d="
M152.905 160.302
L166.579 160.302
L166.579 125.811
L152.905 125.811
z
" style="fill:#ffffff;stroke:#ffffff;"/>
    </g>
    <!-- v0.3.4 -->
    <g transform="translate(162.500101332 158.302400625)rotate(-90.0)scale(0.09996 -0.09996)">
     <use xlink:href="#DejaVuSans-76"/>
     <use x="59.1796875" xlink:href="#DejaVuSans-30"/>
     <use x="122.802734375" xlink:href="#DejaVuSans-2e"/>
     <use x="154.58984375" xlink:href="#DejaVuSans-33"/>
     <use x="218.212890625" xlink:href="#DejaVuSans-2e"/>
     <use x="250.0" xlink:href="#DejaVuSans-34"/>
    </g>
   </g>
   <g id="text_24">
    <g id="patch_12">
     <path d="
M157.87 131.19
L171.544 131.19
L171.544 97.0115
L157.87 97.0115
z
" style="fill:#ffffff;stroke:#ffffff;"/>
    </g>
    <!-- v0.3.5 -->
    <g transform="translate(167.465193735 129.190025625)rotate(-90.0)scale(0.09996 -0.09996)">
     <use xlink:href="#DejaVuSans-76"/>
     <use x="59.1796875" xlink:href="#DejaVuSans-30"/>
     <use x="122.802734375" xlink:href="#DejaVuSans-2e"/>
     <use x="154.58984375" xlink:href="#DejaVuSans-33"/>
     <use x="218.212890625" xlink:href="#DejaVuSans-2e"/>
     <use x="250.0" xlink:href="#DejaVuSans-35"/>
    </g>
   </g>
   <g id="text_25">
    <g id="patch_13">
     <path d="
M173.147 160.234
L186.821 160.234
L186.821 125.811
L173.147 125.811
z
" style="fill:#ffffff;stroke:#ffffff;"/>
    </g>
    <!-- v0.3.6 -->
    <g transform="translate(182.742401127 158.233678125)rotate(-90.0)scale(0.09996 -0.09996)">
     <use xlink:href="#DejaVuSans-76"/>
     <use x="59.1796875" xlink:href="#DejaVuSans-30"/>
     <use x="122.802734375" xlink:href="#DejaVuSans-2e"/>
     <use x="154.58984375" xlink:href="#DejaVuSans-33"/>
     <use x="218.212890625" xlink:href="#DejaVuSans-2e"/>
     <use x="250.0" xlink:href="#DejaVuSans-36"/>
    </g>
   </g>
   <g id="text_26">
    <g id="patch_14">
     <path d="
M186.133 131.209
L199.807 131.209
L199.807 97.0115
L186.133 97.0115
z
" style="fill:#ffffff;stroke:#ffffff;"/>
    </g>
    <!-- v0.3.7 -->
    <g transform="translate(195.72802741 129.208768125)rotate(-90.0)scale(0.09996 -0.09996)">
     <use xlink:href="#DejaVuSans-76"/>
     <use x="59.1796875" xlink:href="#DejaVuSans-30"/>
     <use x="122.802734375" xlink:href="#DejaVuSans-2e"/>
     <use x="154.58984375" xlink:href="#DejaVuSans-33"/>
     <use x="218.212890625" xlink:href="#DejaVuSans-2e"/>
     <use x="250.0" xlink:href="#DejaVuSans-37"/>
    </g>
   </g>
   <g id="text_27">
    <g id="patch_15">
     <path d="
M200.646 160.179
L214.32 160.179
L214.32 125.811
L200.646 125.811
z
" style="fill:#ffffff;stroke:#ffffff;"/>
    </g>
    <!-- v0.3.8 -->
    <g transform="translate(210.241374433 158.1790125)rotate(-90.0)scale(0.09996 -0.09996)">
     <use xlink:href="#DejaVuSans-76"/>
     <use x="59.1796875" xlink:href="#DejaVuSans-30"/>
     <use x="122.802734375" xlink:href="#DejaVuSans-2e"/>
     <use x="154.58984375" xlink:href="#DejaVuSans-33"/>
     <use x="218.212890625" xlink:href="#DejaVuSans-2e"/>
     <use x="250.0" xlink:href="#DejaVuSans-38"/>
    </g>
   </g>
   <g id="text_28">
    <g id="patch_16">
     <path d="
M212.104 131.36
L225.778 131.36
L225.778 97.0115
L212.104 97.0115
z
" style="fill:#ffffff;stroke:#ffffff;"/>
    </g>
    <!-- v0.3.9 -->
    <defs>
     <path d="
M10.9844 1.51562
L10.9844 10.5
Q14.7031 8.73438 18.5 7.8125
Q22.3125 6.89062 25.9844 6.89062
Q35.75 6.89062 40.8906 13.4531
Q46.0469 20.0156 46.7812 33.4062
Q43.9531 29.2031 39.5938 26.9531
Q35.25 24.7031 29.9844 24.7031
Q19.0469 24.7031 12.6719 31.3125
Q6.29688 37.9375 6.29688 49.4219
Q6.29688 60.6406 12.9375 67.4219
Q19.5781 74.2188 30.6094 74.2188
Q43.2656 74.2188 49.9219 64.5156
Q56.5938 54.8281 56.5938 36.375
Q56.5938 19.1406 48.4062 8.85938
Q40.2344 -1.42188 26.4219 -1.42188
Q22.7031 -1.42188 18.8906 -0.6875
Q15.0938 0.046875 10.9844 1.51562
M30.6094 32.4219
Q37.25 32.4219 41.125 36.9531
Q45.0156 41.5 45.0156 49.4219
Q45.0156 57.2812 41.125 61.8438
Q37.25 66.4062 30.6094 66.4062
Q23.9688 66.4062 20.0938 61.8438
Q16.2188 57.2812 16.2188 49.4219
Q16.2188 41.5 20.0938 36.9531
Q23.9688 32.4219 30.6094 32.4219" id="DejaVuSans-39"/>
    </defs>
    <g transform="translate(221.699279977 129.36027)rotate(-90.0)scale(0.09996 -0.09996)">
     <use xlink:href="#DejaVuSans-76"/>
     <use x="59.1796875" xlink:href="#DejaVuSans-30"/>
     <use x="122.802734375" xlink:href="#DejaVuSans-2e"/>
     <use x="154.58984375" xlink:href="#DejaVuSans-33"/>
     <use x="218.212890625" xlink:href="#DejaVuSans-2e"/>
     <use x="250.0" xlink:href="#DejaVuSans-39"/>
    </g>
   </g>
   <g id="text_29">
    <g id="patch_17">
     <path d="
M221.652 166.559
L235.326 166.559
L235.326 125.811
L221.652 125.811
z
" style="fill:#ffffff;stroke:#ffffff;"/>
    </g>
    <!-- v0.3.10 -->
    <g transform="translate(231.247534597 164.559271875)rotate(-90.0)scale(0.09996 -0.09996)">
     <use xlink:href="#DejaVuSans-76"/>
     <use x="59.1796875" xlink:href="#DejaVuSans-30"/>
     <use x="122.802734375" xlink:href="#DejaVuSans-2e"/>
     <use x="154.58984375" xlink:href="#DejaVuSans-33"/>
     <use x="218.212890625" xlink:href="#DejaVuSans-2e"/>
     <use x="250.0" xlink:href="#DejaVuSans-31"/>
     <use x="313.623046875" xlink:href="#DejaVuSans-30"/>
    </g>
   </g>
   <g id="text_30">
    <g id="patch_18">
     <path d="
M234.256 137.5
L247.93 137.5
L247.93 97.0115
L234.256 97.0115
z
" style="fill:#ffffff;stroke:#ffffff;"/>
    </g>
    <!-- v0.3.11 -->
    <g transform="translate(243.851230696 135.500000625)rotate(-90.0)scale(0.09996 -0.09996)">
     <use xlink:href="#DejaVuSans-76"/>
     <use x="59.1796875" xlink:href="#DejaVuSans-30"/>
     <use x="122.802734375" xlink:href="#DejaVuSans-2e"/>
     <use x="154.58984375" xlink:href="#DejaVuSans-33"/>
     <use x="218.212890625" xlink:href="#DejaVuSans-2e"/>
     <use x="250.0" xlink:href="#DejaVuSans-31"/>
     <use x="313.623046875" xlink:href="#DejaVuSans-31"/>
    </g>
   </g>
   <g id="text_31">
    <g id="patch_19">
     <path d="
M269.011 166.222
L282.686 166.222
L282.686 125.811
L269.011 125.811
z
" style="fill:#ffffff;stroke:#ffffff;"/>
    </g>
    <!-- v0.3.12 -->
    <g transform="translate(278.606877513 164.221906875)rotate(-90.0)scale(0.09996 -0.09996)">
     <use xlink:href="#DejaVuSans-76"/>
     <use x="59.1796875" xlink:href="#DejaVuSans-30"/>
     <use x="122.802734375" xlink:href="#DejaVuSans-2e"/>
     <use x="154.58984375" xlink:href="#DejaVuSans-33"/>
     <use x="218.212890625" xlink:href="#DejaVuSans-2e"/>
     <use x="250.0" xlink:href="#DejaVuSans-31"/>
     <use x="313.623046875" xlink:href="#DejaVuSans-32"/>
    </g>
   </g>
   <g id="text_32">
    <g id="patch_20">
     <path d="
M262.137 239.399
L275.811 239.399
L275.811 205.011
L262.137 205.011
z
" style="fill:#ffffff;stroke:#ffffff;"/>
    </g>
    <!-- v0.4.0 -->
    <g transform="translate(271.732134186 237.399316875)rotate(-90.0)scale(0.09996 -0.09996)">
     <use xlink:href="#DejaVuSans-76"/>
     <use x="59.1796875" xlink:href="#DejaVuSans-30"/>
     <use x="122.802734375" xlink:href="#DejaVuSans-2e"/>
     <use x="154.58984375" xlink:href="#DejaVuSans-34"/>
     <use x="218.212890625" xlink:href="#DejaVuSans-2e"/>
     <use x="250.0" xlink:href="#DejaVuSans-30"/>
    </g>
   </g>
   <g id="text_33">
    <g id="patch_21">
     <path d="
M273.977 217.54
L287.651 217.54
L287.651 183.411
L273.977 183.411
z
" style="fill:#ffffff;stroke:#ffffff;"/>
    </g>
    <!-- v0.4.1 -->
    <g transform="translate(283.571969915 215.540045625)rotate(-90.0)scale(0.09996 -0.09996)">
     <use xlink:href="#DejaVuSans-76"/>
     <use x="59.1796875" xlink:href="#DejaVuSans-30"/>
     <use x="122.802734375" xlink:href="#DejaVuSans-2e"/>
     <use x="154.58984375" xlink:href="#DejaVuSans-34"/>
     <use x="218.212890625" xlink:href="#DejaVuSans-2e"/>
     <use x="250.0" xlink:href="#DejaVuSans-31"/>
    </g>
   </g>
   <g id="text_34">
    <g id="patch_22">
     <path d="
M284.671 239.062
L298.345 239.062
L298.345 205.011
L284.671 205.011
z
" style="fill:#ffffff;stroke:#ffffff;"/>
    </g>
    <!-- v0.4.2 -->
    <g transform="translate(294.26601509 237.061951875)rotate(-90.0)scale(0.09996 -0.09996)">
     <use xlink:href="#DejaVuSans-76"/>
     <use x="59.1796875" xlink:href="#DejaVuSans-30"/>
     <use x="122.802734375" xlink:href="#DejaVuSans-2e"/>
     <use x="154.58984375" xlink:href="#DejaVuSans-34"/>
     <use x="218.212890625" xlink:href="#DejaVuSans-2e"/>
     <use x="250.0" xlink:href="#DejaVuSans-32"/>
    </g>
   </g>
   <g id="text_35">
    <g id="patch_23">
     <path d="
M298.802 217.662
L312.476 217.662
L312.476 183.411
L298.802 183.411
z
" style="fill:#ffffff;stroke:#ffffff;"/>
    </g>
    <!-- v0.4.3 -->
    <g transform="translate(308.397431928 215.661871875)rotate(-90.0)scale(0.09996 -0.09996)">
     <use xlink:href="#DejaVuSans-76"/>
     <use x="59.1796875" xlink:href="#DejaVuSans-30"/>
     <use x="122.802734375" xlink:href="#DejaVuSans-2e"/>
     <use x="154.58984375" xlink:href="#DejaVuSans-34"/>
     <use x="218.212890625" xlink:href="#DejaVuSans-2e"/>
     <use x="250.0" xlink:href="#DejaVuSans-33"/>
    </g>
   </g>
   <g id="text_36">
    <g id="patch_24">
     <path d="
M323.627 239.19
L337.302 239.19
L337.302 205.011
L323.627 205.011
z
" style="fill:#ffffff;stroke:#ffffff;"/>
    </g>
    <!-- v0.4.5 -->
    <g transform="translate(333.22289394 237.190025625)rotate(-90.0)scale(0.09996 -0.09996)">
     <use xlink:href="#DejaVuSans-76"/>
     <use x="59.1796875" xlink:href="#DejaVuSans-30"/>
     <use x="122.802734375" xlink:href="#DejaVuSans-2e"/>
     <use x="154.58984375" xlink:href="#DejaVuSans-34"/>
     <use x="218.212890625" xlink:href="#DejaVuSans-2e"/>
     <use x="250.0" xlink:href="#DejaVuSans-35"/>
    </g>
   </g>
   <g id="text_37">
    <g id="patch_25">
     <path d="
M359.529 217.834
L373.203 217.834
L373.203 183.411
L359.529 183.411
z
" style="fill:#ffffff;stroke:#ffffff;"/>
    </g>
    <!-- v0.4.6 -->
    <g transform="translate(369.124331312 215.833678125)rotate(-90.0)scale(0.09996 -0.09996)">
     <use xlink:href="#DejaVuSans-76"/>
     <use x="59.1796875" xlink:href="#DejaVuSans-30"/>
     <use x="122.802734375" xlink:href="#DejaVuSans-2e"/>
     <use x="154.58984375" xlink:href="#DejaVuSans-34"/>
     <use x="218.212890625" xlink:href="#DejaVuSans-2e"/>
     <use x="250.0" xlink:href="#DejaVuSans-36"/>
    </g>
   </g>
   <g id="text_38">
    <g id="patch_26">
     <path d="
M394.285 239.209
L407.959 239.209
L407.959 205.011
L394.285 205.011
z
" style="fill:#ffffff;stroke:#ffffff;"/>
    </g>
    <!-- v0.4.7 -->
    <g transform="translate(403.879978129 237.208768125)rotate(-90.0)scale(0.09996 -0.09996)">
     <use xlink:href="#DejaVuSans-76"/>
     <use x="59.1796875" xlink:href="#DejaVuSans-30"/>
     <use x="122.802734375" xlink:href="#DejaVuSans-2e"/>
     <use x="154.58984375" xlink:href="#DejaVuSans-34"/>
     <use x="218.212890625" xlink:href="#DejaVuSans-2e"/>
     <use x="250.0" xlink:href="#DejaVuSans-37"/>
    </g>
   </g>
   <g id="text_39">
    <g id="patch_27">
     <path d="
M394.667 167.399
L408.341 167.399
L408.341 133.011
L394.667 133.011
z
" style="fill:#ffffff;stroke:#ffffff;"/>
    </g>
    <!-- v0.5.0 -->
    <g transform="translate(404.261908314 165.399316875)rotate(-90.0)scale(0.09996 -0.09996)">
     <use xlink:href="#DejaVuSans-76"/>
     <use x="59.1796875" xlink:href="#DejaVuSans-30"/>
     <use x="122.802734375" xlink:href="#DejaVuSans-2e"/>
     <use x="154.58984375" xlink:href="#DejaVuSans-35"/>
     <use x="218.212890625" xlink:href="#DejaVuSans-2e"/>
     <use x="250.0" xlink:href="#DejaVuSans-30"/>
    </g>
   </g>
   <g id="text_40">
    <g id="patch_28">
     <path d="
M458.449 152.74
L472.123 152.74
L472.123 118.611
L458.449 118.611
z
" style="fill:#ffffff;stroke:#ffffff;"/>
    </g>
    <!-- v0.5.1 -->
    <g transform="translate(468.044249176 150.740045625)rotate(-90.0)scale(0.09996 -0.09996)">
     <use xlink:href="#DejaVuSans-76"/>
     <use x="59.1796875" xlink:href="#DejaVuSans-30"/>
     <use x="122.802734375" xlink:href="#DejaVuSans-2e"/>
     <use x="154.58984375" xlink:href="#DejaVuSans-35"/>
     <use x="218.212890625" xlink:href="#DejaVuSans-2e"/>
     <use x="250.0" xlink:href="#DejaVuSans-31"/>
    </g>
   </g>
   <g id="text_41">
    <g id="patch_29">
     <path d="
M482.129 167.062
L495.803 167.062
L495.803 133.011
L482.129 133.011
z
" style="fill:#ffffff;stroke:#ffffff;"/>
    </g>
    <!-- v0.5.2 -->
    <g transform="translate(491.723920634 165.061951875)rotate(-90.0)scale(0.09996 -0.09996)">
     <use xlink:href="#DejaVuSans-76"/>
     <use x="59.1796875" xlink:href="#DejaVuSans-30"/>
     <use x="122.802734375" xlink:href="#DejaVuSans-2e"/>
     <use x="154.58984375" xlink:href="#DejaVuSans-35"/>
     <use x="218.212890625" xlink:href="#DejaVuSans-2e"/>
     <use x="250.0" xlink:href="#DejaVuSans-32"/>
    </g>
   </g>
   <g id="text_42">
    <g id="patch_30">
     <path d="
M498.933 239.399
L512.608 239.399
L512.608 205.011
L498.933 205.011
z
" style="fill:#ffffff;stroke:#ffffff;"/>
    </g>
    <!-- v0.6.0 -->
    <g transform="translate(508.528848765 237.399316875)rotate(-90.0)scale(0.09996 -0.09996)">
     <use xlink:href="#DejaVuSans-76"/>
     <use x="59.1796875" xlink:href="#DejaVuSans-30"/>
     <use x="122.802734375" xlink:href="#DejaVuSans-2e"/>
     <use x="154.58984375" xlink:href="#DejaVuSans-36"/>
     <use x="218.212890625" xlink:href="#DejaVuSans-2e"/>
     <use x="250.0" xlink:href="#DejaVuSans-30"/>
    </g>
   </g>
   <g id="text_43">
    <g id="patch_31">
     <path d="
M547.439 195.94
L561.113 195.94
L561.113 161.811
L547.439 161.811
z
" style="fill:#ffffff;stroke:#ffffff;"/>
    </g>
    <!-- v0.6.1 -->
    <g transform="translate(557.033982236 193.940045625)rotate(-90.0)scale(0.09996 -0.09996)">
     <use xlink:href="#DejaVuSans-76"/>
     <use x="59.1796875" xlink:href="#DejaVuSans-30"/>
     <use x="122.802734375" xlink:href="#DejaVuSans-2e"/>
     <use x="154.58984375" xlink:href="#DejaVuSans-36"/>
     <use x="218.212890625" xlink:href="#DejaVuSans-2e"/>
     <use x="250.0" xlink:href="#DejaVuSans-31"/>
    </g>
   </g>
   <g id="text_44">
    <g id="patch_32">
     <path d="
M566.535 174.262
L580.209 174.262
L580.209 140.211
L566.535 140.211
z
" style="fill:#ffffff;stroke:#ffffff;"/>
    </g>
    <!-- v0.6.2 -->
    <g transform="translate(576.130491476 172.261951875)rotate(-90.0)scale(0.09996 -0.09996)">
     <use xlink:href="#DejaVuSans-76"/>
     <use x="59.1796875" xlink:href="#DejaVuSans-30"/>
     <use x="122.802734375" xlink:href="#DejaVuSans-2e"/>
     <use x="154.58984375" xlink:href="#DejaVuSans-36"/>
     <use x="218.212890625" xlink:href="#DejaVuSans-2e"/>
     <use x="250.0" xlink:href="#DejaVuSans-32"/>
    </g>
   </g>
   <g id="legend_1">
    <g id="patch_33">
     <path d="
M61.2368 109.037
L111.899 109.037
L111.899 18.0049
L61.2368 18.0049
L61.2368 109.037
z
" style="fill:#ffffff;stroke:#000000;"/>
    </g>
    <g id="line2d_67">
     <path d="
M68.234 26.1001
L82.2284 26.1001" style="fill:none;stroke:#ff0000;stroke-linecap:square;stroke-width:2;"/>
    </g>
    <g id="line2d_68"/>
    <g id="text_45">
     <!-- 0.2 -->
     <g transform="translate(93.22395 29.598673125)scale(0.09996 -0.09996)">
      <use xlink:href="#DejaVuSans-30"/>
      <use x="63.623046875" xlink:href="#DejaVuSans-2e"/>
      <use x="95.41015625" xlink:href="#DejaVuSans-32"/>
     </g>
    </g>
    <g id="line2d_69">
     <path d="
M68.234 40.7723
L82.2284 40.7723" style="fill:none;stroke:#008000;stroke-linecap:square;stroke-width:2;"/>
    </g>
    <g id="line2d_70"/>
    <g id="text_46">
     <!-- 0.3 -->
     <g transform="translate(93.22395 44.270926875)scale(0.09996 -0.09996)">
      <use xlink:href="#DejaVuSans-30"/>
      <use x="63.623046875" xlink:href="#DejaVuSans-2e"/>
      <use x="95.41015625" xlink:href="#DejaVuSans-33"/>
     </g>
    </g>
    <g id="line2d_71">
     <path d="
M68.234 55.4446
L82.2284 55.4446" style="fill:none;stroke:#0000ff;stroke-linecap:square;stroke-width:2;"/>
    </g>
    <g id="line2d_72"/>
    <g id="text_47">
     <!-- 0.4 -->
     <g transform="translate(93.22395 58.943180625)scale(0.09996 -0.09996)">
      <use xlink:href="#DejaVuSans-30"/>
      <use x="63.623046875" xlink:href="#DejaVuSans-2e"/>
      <use x="95.41015625" xlink:href="#DejaVuSans-34"/>
     </g>
    </g>
    <g id="line2d_73">
     <path d="
M68.234 70.1168
L82.2284 70.1168" style="fill:none;stroke:#000000;stroke-linecap:square;stroke-width:2;"/>
    </g>
    <g id="line2d_74"/>
    <g id="text_48">
     <!-- 0.5 -->
     <g transform="translate(93.22395 73.615434375)scale(0.09996 -0.09996)">
      <use xlink:href="#DejaVuSans-30"/>
      <use x="63.623046875" xlink:href="#DejaVuSans-2e"/>
      <use x="95.41015625" xlink:href="#DejaVuSans-35"/>
     </g>
    </g>
    <g id="line2d_75">
     <path d="
M68.234 84.7891
L82.2284 84.7891" style="fill:none;stroke:#bfbf00;stroke-linecap:square;stroke-width:2;"/>
    </g>
    <g id="line2d_76"/>
    <g id="text_49">
     <!-- 0.6 -->
     <g transform="translate(93.22395 88.287688125)scale(0.09996 -0.09996)">
      <use xlink:href="#DejaVuSans-30"/>
      <use x="63.623046875" xlink:href="#DejaVuSans-2e"/>
      <use x="95.41015625" xlink:href="#DejaVuSans-36"/>
     </g>
    </g>
    <g id="line2d_77">
     <path d="
M68.234 99.4613
L82.2284 99.4613" style="fill:none;stroke:#bf00bf;stroke-linecap:square;stroke-width:2;"/>
    </g>
    <g id="line2d_78"/>
    <g id="text_50">
     <!-- 0.7 -->
     <g transform="translate(93.22395 102.959941875)scale(0.09996 -0.09996)">
      <use xlink:href="#DejaVuSans-30"/>
      <use x="63.623046875" xlink:href="#DejaVuSans-2e"/>
      <use x="95.41015625" xlink:href="#DejaVuSans-37"/>
     </g>
    </g>
   </g>
  </g>
 </g>
 <defs>
  <clipPath id="p8b363464d2">
   <rect height="230.4" width="558.0" x="56.23875" y="13.006875"/>
  </clipPath>
 </defs>
</svg>
